<svg width="993" height="986" viewBox="0 0 993 986" fill="none" xmlns="http://www.w3.org/2000/svg">
<path fill-rule="evenodd" clip-rule="evenodd" d="M24.2757 1.95764C21.7847 4.00264 22.3367 6.25265 25.8557 8.40365C27.2467 9.25365 27.9927 8.99365 29.5247 7.12765C32.9957 2.89864 28.5107 -1.51936 24.2757 1.95764ZM70.0477 1.54164C69.1837 2.40664 68.4767 3.72465 68.4767 4.47065C68.4767 5.76365 71.0687 8.97064 72.1137 8.97064C74.0867 8.97064 76.4767 6.50565 76.4767 4.47065C76.4767 3.09165 75.6397 1.59365 74.5427 1.00565C72.0407 -0.333355 71.9077 -0.317356 70.0477 1.54164ZM116.227 1.05065C111.864 3.59165 116.019 10.3566 120.477 7.97065C123.056 6.59065 123.096 2.37265 120.543 1.00565C118.241 -0.226355 118.423 -0.228355 116.227 1.05065ZM162.227 1.05065C158.977 2.94365 160.965 8.97064 164.84 8.97064C165.885 8.97064 168.477 5.76365 168.477 4.47065C168.477 3.04965 165.825 -0.0513541 164.656 0.000645933C164.282 0.0176459 163.19 0.489645 162.227 1.05065ZM208.716 0.692645C208.022 0.941645 206.973 2.04365 206.386 3.14065C205.553 4.69665 205.7 5.55965 207.052 7.05365C209.155 9.37765 210.288 9.45165 212.54 7.41365C215.466 4.76565 212.398 -0.626355 208.716 0.692645ZM253.048 1.54164C252.184 2.40664 251.477 3.72465 251.477 4.47065C251.477 6.16365 254.204 8.97064 255.848 8.97064C259.485 8.97064 260.808 2.75365 257.543 1.00565C255.041 -0.333355 254.908 -0.317356 253.048 1.54164ZM299.227 1.05065C294.864 3.59165 299.019 10.3566 303.477 7.97065C306.056 6.59065 306.096 2.37265 303.543 1.00565C301.241 -0.226355 301.423 -0.228355 299.227 1.05065ZM345.227 1.05065C341.977 2.94365 343.965 8.97064 347.84 8.97064C348.885 8.97064 351.477 5.76365 351.477 4.47065C351.477 3.04965 348.825 -0.0513541 347.656 0.000645933C347.282 0.0176459 346.189 0.489645 345.227 1.05065ZM390.677 1.17065C387.678 4.16965 390.488 9.73665 394.378 8.50165C397.541 7.49765 398.135 3.92165 395.493 1.78265C392.856 -0.352355 392.274 -0.426354 390.677 1.17065ZM436.048 1.54164C435.184 2.40664 434.477 3.72465 434.477 4.47065C434.477 5.76365 437.069 8.97064 438.114 8.97064C440.087 8.97064 442.477 6.50565 442.477 4.47065C442.477 3.09165 441.64 1.59365 440.543 1.00565C438.041 -0.333355 437.908 -0.317356 436.048 1.54164ZM482.048 1.54164C481.184 2.40664 480.477 3.72465 480.477 4.47065C480.477 5.76365 483.069 8.97064 484.114 8.97064C486.087 8.97064 488.477 6.50565 488.477 4.47065C488.477 3.09165 487.64 1.59365 486.543 1.00565C484.041 -0.333355 483.908 -0.317356 482.048 1.54164ZM528.227 1.05065C524.977 2.94365 526.965 8.97064 530.84 8.97064C531.885 8.97064 534.477 5.76365 534.477 4.47065C534.477 3.04965 531.825 -0.0513541 530.656 0.000645933C530.282 0.0176459 529.189 0.489645 528.227 1.05065ZM574.201 1.10465C570.314 3.28065 573.69 9.97764 577.866 8.37464C579.63 7.69764 580.901 4.46565 579.986 2.98465C578.782 1.03665 575.961 0.120646 574.201 1.10465ZM620.274 0.709646C618.304 1.16065 617.161 3.98465 618.032 6.25265C619.522 10.1356 625.477 8.71065 625.477 4.47065C625.477 1.85365 623.024 0.0806456 620.274 0.709646ZM665.021 1.31465C662.853 2.89965 663.503 7.38264 666.041 8.35664C670.408 10.0326 673.659 3.20865 669.543 1.00565C667.121 -0.290355 667.226 -0.297355 665.021 1.31465ZM711.227 1.05065C708.842 2.43965 708.994 6.64165 711.477 7.97065C715.865 10.3186 719.461 5.09764 715.906 1.54164C714.084 -0.279356 713.598 -0.330355 711.227 1.05065ZM757.227 1.05065C754.881 2.41665 754.99 6.63965 757.405 7.93165C761.597 10.1756 765.127 5.45064 761.912 1.89864C759.924 -0.297355 759.633 -0.350355 757.227 1.05065ZM802.042 1.89864C799.932 4.22964 800.714 7.59365 803.576 8.50165C807.868 9.86465 810.529 3.13965 806.543 1.00565C804.028 -0.340355 804.077 -0.350355 802.042 1.89864ZM848.048 1.54164C847.184 2.40664 846.477 3.72465 846.477 4.47065C846.477 5.76365 849.069 8.97064 850.114 8.97064C852.087 8.97064 854.477 6.50565 854.477 4.47065C854.477 3.09165 853.64 1.59365 852.543 1.00565C850.041 -0.333355 849.908 -0.317356 848.048 1.54164ZM894.227 1.05065C890.977 2.94365 892.965 8.97064 896.84 8.97064C897.885 8.97064 900.477 5.76365 900.477 4.47065C900.477 3.04965 897.825 -0.0513541 896.656 0.000645933C896.282 0.0176459 895.189 0.489645 894.227 1.05065ZM940.227 1.05065C936.977 2.94365 938.965 8.97064 942.84 8.97064C943.885 8.97064 946.477 5.76365 946.477 4.47065C946.477 3.04965 943.825 -0.0513541 942.656 0.000645933C942.282 0.0176459 941.189 0.489645 940.227 1.05065ZM985.144 2.03565C983.364 4.57765 984.056 7.70165 986.576 8.50165C988.813 9.21265 990.102 8.54064 991.495 5.93764C992.298 4.43664 992.081 3.57465 990.5 1.99365C987.95 -0.556354 986.954 -0.548354 985.144 2.03565ZM1.09068 48.4996C-1.09732 50.6876 0.477677 54.3846 3.76768 54.7806C7.04768 55.1756 9.08768 51.9806 7.47668 48.9706C6.20368 46.5916 3.21868 46.3716 1.09068 48.4996ZM46.3087 49.4406C44.8377 52.6676 46.7717 55.1916 50.3907 54.7716C52.4117 54.5366 53.0487 53.8386 53.3067 51.5796C53.8587 46.7436 48.3097 45.0476 46.3087 49.4406ZM92.6767 48.1706C89.6627 51.1846 92.6547 55.6446 96.9637 54.5636C101.119 53.5206 99.8357 46.9706 95.4767 46.9706C94.5967 46.9706 93.3367 47.5106 92.6767 48.1706ZM138.677 48.1706C138.017 48.8306 137.477 50.3966 137.477 51.6516C137.477 54.3936 141.675 55.8816 143.99 53.9596C146.793 51.6336 145.117 46.9706 141.477 46.9706C140.597 46.9706 139.337 47.5106 138.677 48.1706ZM183.867 48.3976C182.652 51.5636 183.921 54.4636 186.66 54.7806C190.049 55.1716 192.114 52.0286 190.477 48.9706C189.232 46.6446 184.69 46.2506 183.867 48.3976ZM229.477 48.9706C227.84 52.0286 229.905 55.1716 233.294 54.7806C235.419 54.5346 236.046 53.8696 236.307 51.5796C236.824 47.0466 231.579 45.0436 229.477 48.9706ZM275.677 48.1706C272.663 51.1846 275.655 55.6446 279.964 54.5636C284.119 53.5206 282.836 46.9706 278.477 46.9706C277.597 46.9706 276.337 47.5106 275.677 48.1706ZM321.677 48.1706C321.017 48.8306 320.477 50.3966 320.477 51.6516C320.477 54.3936 324.675 55.8816 326.99 53.9596C329.793 51.6336 328.117 46.9706 324.477 46.9706C323.597 46.9706 322.337 47.5106 321.677 48.1706ZM367.647 47.8446C366.891 48.3236 366.459 49.9366 366.647 51.5796C366.908 53.8696 367.535 54.5346 369.66 54.7806C371.55 54.9986 372.668 54.4816 373.445 53.0306C375.582 49.0376 371.51 45.3956 367.647 47.8446ZM412.509 48.9106C410.839 52.0316 412.867 55.1766 416.294 54.7806C418.635 54.5106 418.977 54.0236 418.977 50.9706C418.977 47.9176 418.635 47.4306 416.294 47.1606C414.404 46.9426 413.286 47.4596 412.509 48.9106ZM458.677 48.1706C455.663 51.1846 458.655 55.6446 462.964 54.5636C467.119 53.5206 465.836 46.9706 461.477 46.9706C460.597 46.9706 459.337 47.5106 458.677 48.1706ZM504.517 48.4226C501.86 51.6236 505.762 56.5406 509.227 54.3586C512.689 52.1776 511.456 46.9706 507.477 46.9706C506.512 46.9706 505.18 47.6236 504.517 48.4226ZM550.727 47.6326C550.04 47.9106 549.477 49.4416 549.477 51.0346C549.477 53.3166 550.026 54.0706 552.062 54.5816C555.845 55.5306 558.227 52.9116 556.676 49.5076C555.586 47.1166 553.577 46.4826 550.727 47.6326ZM595.477 48.9706C593.981 51.7656 595.851 54.9706 598.977 54.9706C600.383 54.9706 601.858 54.1286 602.477 52.9706C603.973 50.1756 602.103 46.9706 598.977 46.9706C597.571 46.9706 596.096 47.8126 595.477 48.9706ZM641.309 49.4406C639.838 52.6676 641.772 55.1916 645.391 54.7716C647.216 54.5586 648.073 53.7926 648.304 52.1656C649.009 47.1926 643.339 44.9846 641.309 49.4406ZM687.517 48.4226C684.86 51.6236 688.762 56.5406 692.227 54.3586C695.689 52.1776 694.456 46.9706 690.477 46.9706C689.512 46.9706 688.18 47.6236 687.517 48.4226ZM733.677 48.1706C733.017 48.8306 732.477 50.3966 732.477 51.6516C732.477 54.3936 736.675 55.8816 738.99 53.9596C741.793 51.6336 740.117 46.9706 736.477 46.9706C735.597 46.9706 734.337 47.5106 733.677 48.1706ZM779.877 47.7356C778.191 48.8616 777.649 51.2796 778.647 53.2206C779.877 55.6116 784.147 55.4546 785.477 52.9706C787.513 49.1656 783.439 45.3576 779.877 47.7356ZM824.338 49.3756C822.837 52.6706 824.734 55.1966 828.391 54.7716C830.622 54.5116 830.977 53.9906 830.977 50.9706C830.977 47.8986 830.642 47.4316 828.235 47.1546C826.108 46.9096 825.235 47.4076 824.338 49.3756ZM870.517 48.4226C867.86 51.6236 871.762 56.5406 875.227 54.3586C878.689 52.1776 877.456 46.9706 873.477 46.9706C872.512 46.9706 871.18 47.6236 870.517 48.4226ZM916.677 48.1706C916.017 48.8306 915.477 50.3966 915.477 51.6516C915.477 54.3936 919.675 55.8816 921.99 53.9596C924.793 51.6336 923.117 46.9706 919.477 46.9706C918.597 46.9706 917.337 47.5106 916.677 48.1706ZM961.867 48.3976C960.652 51.5636 961.921 54.4636 964.66 54.7806C968.049 55.1716 970.114 52.0286 968.477 48.9706C967.232 46.6446 962.69 46.2506 961.867 48.3976ZM70.0477 94.5416C69.1837 95.4066 68.4767 96.7246 68.4767 97.4706C68.4767 99.1636 71.2037 101.971 72.8477 101.971C76.4847 101.971 77.8077 95.7536 74.5427 94.0056C72.0407 92.6666 71.9077 92.6826 70.0477 94.5416ZM116.727 94.0566C113.829 95.1506 113.673 99.4696 116.477 100.971C119.272 102.467 122.477 100.597 122.477 97.4706C122.477 94.5006 119.785 92.9016 116.727 94.0566ZM162.201 94.1046C158.403 96.2306 161.232 102.818 165.378 101.502C167.509 100.826 169.012 97.6456 167.986 95.9846C166.782 94.0366 163.961 93.1206 162.201 94.1046ZM208.716 93.7046C208.022 93.9466 206.973 95.0436 206.386 96.1406C205.553 97.6966 205.7 98.5596 207.052 100.054C208.006 101.108 209.322 101.971 209.977 101.971C210.632 101.971 211.948 101.108 212.902 100.054C214.242 98.5736 214.397 97.6896 213.584 96.1716C212.404 93.9646 210.596 93.0496 208.716 93.7046ZM253.454 94.9936C251.066 97.3816 250.994 98.3446 253.048 100.4C256.175 103.526 260.201 100.993 259.097 96.5936C258.272 93.3046 255.834 92.6136 253.454 94.9936ZM436.443 94.7976C434.842 96.0936 434.412 97.1906 434.901 98.7316C436.36 103.328 442.477 102.239 442.477 97.3836C442.477 93.9316 439.23 92.5406 436.443 94.7976ZM483.477 93.7556C479.785 95.0226 479.46 99.5496 482.947 101.139C484.836 102 485.778 101.966 486.947 100.996C490.335 98.1836 487.543 92.3596 483.477 93.7556ZM528.119 94.1506C526.087 95.2886 525.975 99.3086 527.929 100.931C529.701 102.401 533.068 101.478 533.907 99.2916C535.388 95.4336 531.692 92.1516 528.119 94.1506ZM574.167 94.1246C570.422 96.2206 573.249 102.813 577.337 101.516C579.815 100.729 580.751 98.3506 579.501 96.0156C578.234 93.6486 576.264 92.9506 574.167 94.1246ZM665.592 94.6026C663.077 96.3636 662.9 98.2506 665.048 100.4C667.192 102.543 669.192 102.372 670.497 99.9326C672.789 95.6506 669.381 91.9486 665.592 94.6026ZM711.592 94.6026C708.952 96.4516 708.86 99.5706 711.405 100.932C714.932 102.82 718.212 99.8616 716.962 95.9226C716.162 93.4046 714.046 92.8846 711.592 94.6026ZM757.201 94.1046C753.403 96.2306 756.232 102.818 760.378 101.502C762.509 100.826 764.012 97.6456 762.986 95.9846C761.782 94.0366 758.961 93.1206 757.201 94.1046ZM802.5 94.9476C801.387 96.0606 800.477 97.3886 800.477 97.8996C800.477 99.2416 803.407 101.971 804.848 101.971C808.514 101.971 809.8 95.7486 806.5 93.9826C804.93 93.1426 804.107 93.3406 802.5 94.9476ZM849.274 93.7096C845.726 94.5206 845.983 100.362 849.617 101.516C852.156 102.321 854.477 100.348 854.477 97.3836C854.477 94.8426 851.992 93.0886 849.274 93.7096ZM894.167 94.1246C891.831 95.4316 892.023 99.6566 894.477 100.971C898.27 103.001 902.115 98.9066 899.712 95.3976C898.538 93.6836 895.996 93.1006 894.167 94.1246ZM985.979 94.3456C983.87 95.8876 984.33 99.8726 986.79 101.369C989.285 102.886 992.941 98.7066 991.49 95.9956C990.169 93.5256 987.991 92.8736 985.979 94.3456ZM24.1437 94.6376C22.8327 95.9486 23.4867 100.761 25.0587 101.364C27.6507 102.359 28.3507 102.094 30.0717 99.4656C31.3947 97.4466 31.4727 96.6706 30.4727 95.4656C29.2057 93.9396 25.3467 93.4346 24.1437 94.6376ZM298.677 95.1706C296.875 96.9726 297.231 99.7686 299.411 100.936C302.339 102.502 303.412 102.208 304.645 99.5006C306.538 95.3476 301.879 91.9686 298.677 95.1706ZM344.144 94.6376C342.739 96.0416 343.561 99.9456 345.477 100.971C347.646 102.132 351.477 100.791 351.477 98.8696C351.477 95.2546 346.436 92.3446 344.144 94.6376ZM390.19 94.5916C388.962 95.8186 389.412 99.6716 390.929 100.931C391.735 101.6 393.318 101.839 394.486 101.468C396.142 100.943 396.525 100.125 396.284 97.6356C396.037 95.0916 395.479 94.4126 393.44 94.1746C392.044 94.0116 390.581 94.1996 390.19 94.5916ZM619.19 94.5916C618.798 94.9836 618.477 96.5486 618.477 98.0696C618.477 99.9796 619.111 101.038 620.525 101.486C623.311 102.371 625.643 100.198 625.278 97.0566C625.054 95.1316 624.328 94.3946 622.44 94.1746C621.044 94.0116 619.581 94.1996 619.19 94.5916ZM939.144 94.6376C937.955 95.8256 938.438 99.6936 939.929 100.931C943.143 103.599 947.403 99.3776 945.297 95.6126C944.385 93.9846 940.425 93.3566 939.144 94.6376ZM1.64668 140.845C0.890676 141.324 0.458676 142.937 0.646676 144.58C0.907676 146.87 1.53468 147.535 3.65968 147.781C5.54968 147.999 6.66768 147.482 7.44468 146.031C9.58168 142.038 5.50968 138.396 1.64668 140.845ZM46.3087 142.441C44.8377 145.668 46.7717 148.192 50.3907 147.772C52.2157 147.559 53.0727 146.793 53.3037 145.166C54.0087 140.193 48.3387 137.985 46.3087 142.441ZM92.5167 141.423C89.8597 144.624 93.7617 149.541 97.2267 147.359C100.689 145.178 99.4557 139.971 95.4767 139.971C94.5117 139.971 93.1797 140.624 92.5167 141.423ZM138.563 141.368C137.881 142.189 137.471 143.898 137.65 145.166C137.905 146.966 138.611 147.471 140.868 147.471C144.433 147.471 146.478 144.787 144.87 142.221C143.434 139.931 140.127 139.483 138.563 141.368ZM184.647 140.845C183.891 141.324 183.459 142.937 183.647 144.58C183.908 146.87 184.535 147.535 186.66 147.781C188.55 147.999 189.668 147.482 190.445 146.031C192.582 142.038 188.51 138.396 184.647 140.845ZM230.048 141.542C228.139 143.452 228.104 144.079 229.783 146.375C231.647 148.925 235.882 148.139 236.304 145.166C236.931 140.743 233.079 138.512 230.048 141.542ZM275.677 141.171C272.982 143.866 275.083 147.971 279.158 147.971C280.76 147.971 281.627 147.223 282.07 145.458C283.151 141.149 278.691 138.157 275.677 141.171ZM321.563 141.368C320.881 142.189 320.471 143.898 320.65 145.166C320.905 146.966 321.611 147.471 323.868 147.471C327.433 147.471 329.478 144.787 327.87 142.221C326.434 139.931 323.127 139.483 321.563 141.368ZM367.523 141.416C365.492 143.863 366.637 147.431 369.563 147.772C373.182 148.192 375.116 145.668 373.645 142.441C372.395 139.698 369.369 139.191 367.523 141.416ZM412.477 141.971C410.84 145.029 412.905 148.172 416.294 147.781C418.419 147.535 419.046 146.87 419.307 144.58C419.824 140.047 414.579 138.044 412.477 141.971ZM458.677 141.171C455.817 144.031 458.449 148.396 462.672 147.798C466.899 147.199 465.867 139.971 461.555 139.971C460.632 139.971 459.337 140.511 458.677 141.171ZM504.517 141.423C501.86 144.624 505.762 149.541 509.227 147.359C512.689 145.178 511.456 139.971 507.477 139.971C506.512 139.971 505.18 140.624 504.517 141.423ZM550.563 141.368C549.881 142.189 549.471 143.898 549.65 145.166C549.905 146.966 550.611 147.471 552.868 147.471C556.433 147.471 558.478 144.787 556.87 142.221C555.434 139.931 552.127 139.483 550.563 141.368ZM596.048 141.542C594.189 143.402 594.173 143.535 595.512 146.037C597.64 150.012 604.154 147.231 602.692 142.971C601.597 139.782 598.479 139.112 596.048 141.542ZM641.677 141.171C638.817 144.031 641.449 148.396 645.672 147.798C649.899 147.199 648.867 139.971 644.555 139.971C643.632 139.971 642.337 140.511 641.677 141.171ZM687.488 141.458C686.78 142.311 686.523 144.017 686.884 145.458C687.38 147.434 688.148 147.971 690.477 147.971C692.806 147.971 693.574 147.434 694.07 145.458C694.793 142.577 693.087 139.971 690.477 139.971C689.512 139.971 688.167 140.64 687.488 141.458ZM733.563 141.368C732.881 142.189 732.471 143.898 732.65 145.166C732.905 146.966 733.611 147.471 735.868 147.471C739.433 147.471 741.478 144.787 739.87 142.221C738.434 139.931 735.127 139.483 733.563 141.368ZM779.877 140.736C778.191 141.862 777.649 144.28 778.647 146.221C779.858 148.576 784.145 148.459 785.442 146.037C786.781 143.535 786.765 143.402 784.906 141.542C783.202 139.839 781.604 139.583 779.877 140.736ZM824.677 141.171C824.017 141.831 823.477 143.126 823.477 144.049C823.477 148.361 830.705 149.393 831.304 145.166C831.902 140.943 827.537 138.311 824.677 141.171ZM870.677 141.171C867.982 143.866 870.083 147.971 874.158 147.971C875.76 147.971 876.627 147.223 877.07 145.458C878.151 141.149 873.691 138.157 870.677 141.171ZM916.563 141.368C915.881 142.189 915.471 143.898 915.65 145.166C915.905 146.966 916.611 147.471 918.868 147.471C922.433 147.471 924.478 144.787 922.87 142.221C921.434 139.931 918.127 139.483 916.563 141.368ZM962.647 140.845C961.891 141.324 961.459 142.937 961.647 144.58C961.908 146.87 962.535 147.535 964.66 147.781C966.55 147.999 967.668 147.482 968.445 146.031C970.582 142.038 966.51 138.396 962.647 140.845ZM70.4427 187.798C68.8417 189.094 68.4117 190.191 68.9007 191.732C70.3597 196.328 76.4767 195.239 76.4767 190.384C76.4767 186.932 73.2297 185.541 70.4427 187.798ZM162.201 187.105C158.825 188.995 160.68 194.971 164.642 194.971C166.673 194.971 168.88 191.463 168.11 189.458C167.267 187.261 164.145 186.018 162.201 187.105ZM711.119 187.151C709.087 188.289 708.975 192.309 710.929 193.931C712.701 195.401 716.068 194.478 716.907 192.292C718.388 188.434 714.692 185.152 711.119 187.151ZM985.5 187.948C983.065 190.383 982.986 191.337 985.048 193.4C988.387 196.739 992.096 194.391 991.595 189.256C991.53 188.588 990.587 187.565 989.5 186.983C987.93 186.143 987.107 186.341 985.5 187.948ZM23.5157 188.899C21.1877 193.248 26.1747 196.717 29.6947 193.198C31.3247 191.567 31.4757 190.837 30.5417 189.093C29.1017 186.402 24.9137 186.286 23.5157 188.899ZM115.144 187.638C114.057 188.724 114.383 192.477 115.677 193.771C118.691 196.785 123.151 193.793 122.07 189.484C121.583 187.545 120.796 186.971 118.625 186.971C117.077 186.971 115.51 187.271 115.144 187.638ZM206.657 188.613C204.669 192.166 207.936 195.883 211.759 194.416C215.633 192.93 214.218 186.971 209.992 186.971C208.663 186.971 207.163 187.71 206.657 188.613ZM252.559 188.372C249.783 191.717 254.731 196.665 258.076 193.889C258.902 193.203 259.443 191.479 259.278 190.057C259.052 188.118 258.33 187.396 256.391 187.17C254.969 187.005 253.245 187.546 252.559 188.372ZM298.191 187.59C296.528 189.253 297.545 193.045 299.947 194.139C303.174 195.61 305.698 193.676 305.278 190.057C305.037 187.991 304.367 187.411 301.941 187.174C300.271 187.01 298.584 187.198 298.191 187.59ZM344.144 187.638C342.955 188.826 343.438 192.694 344.929 193.931C348.198 196.645 353.151 191.692 350.437 188.423C349.2 186.932 345.332 186.449 344.144 187.638ZM389.657 188.613C387.669 192.166 390.936 195.883 394.759 194.416C398.633 192.93 397.218 186.971 392.992 186.971C391.663 186.971 390.163 187.71 389.657 188.613ZM435.559 188.372C432.783 191.717 437.731 196.665 441.076 193.889C441.902 193.203 442.443 191.479 442.278 190.057C442.052 188.118 441.33 187.396 439.391 187.17C437.969 187.005 436.245 187.546 435.559 188.372ZM480.864 189.566C480.174 192.313 482.231 194.971 485.046 194.971C486.96 194.971 488.657 192.266 488.304 189.776C488.052 187.997 487.243 187.4 484.761 187.16C481.984 186.892 481.453 187.22 480.864 189.566ZM527.144 187.638C526.057 188.724 526.383 192.477 527.677 193.771C530.91 197.004 536.421 192.018 533.502 188.501C532.212 186.946 528.358 186.423 527.144 187.638ZM573.144 187.638C571.668 189.113 572.499 193.843 574.336 194.426C578.391 195.713 581.981 191.488 579.437 188.423C578.2 186.932 574.332 186.449 573.144 187.638ZM618.548 188.839C617.211 191.336 618.076 193.709 620.617 194.516C623.321 195.374 625.638 193.157 625.278 190.057C624.883 186.664 620.168 185.811 618.548 188.839ZM663.864 189.566C663.174 192.313 665.231 194.971 668.046 194.971C669.96 194.971 671.657 192.266 671.304 189.776C671.052 187.997 670.243 187.4 667.761 187.16C664.984 186.892 664.453 187.22 663.864 189.566ZM756.144 187.638C754.955 188.826 755.438 192.694 756.929 193.931C760.198 196.645 765.151 191.692 762.437 188.423C761.2 186.932 757.332 186.449 756.144 187.638ZM801.516 188.899C799.134 193.348 804.477 196.924 807.65 193.005C809.015 191.32 809.202 190.326 808.427 188.878C807.096 186.39 802.851 186.403 801.516 188.899ZM847.007 188.876C846.655 189.987 846.857 191.812 847.457 192.933C849.603 196.943 854.969 194.468 854.304 189.776C853.85 186.574 847.968 185.849 847.007 188.876ZM893.144 187.638C892.057 188.724 892.383 192.477 893.677 193.771C896.687 196.781 901.324 193.214 899.965 188.933C899.351 187 894.67 186.111 893.144 187.638ZM939.144 187.638C937.955 188.826 938.438 192.694 939.929 193.931C943.198 196.645 948.151 191.692 945.437 188.423C944.2 186.932 940.332 186.449 939.144 187.638ZM1.87668 233.736C0.190676 234.862 -0.351324 237.28 0.646676 239.221C1.85768 241.576 6.14468 241.459 7.44168 239.037C8.78068 236.535 8.76468 236.402 6.90568 234.542C5.20168 232.839 3.60368 232.583 1.87668 233.736ZM47.0477 234.542C45.1387 236.452 45.1037 237.079 46.7827 239.375C48.8677 242.227 52.9027 241.116 53.3067 237.58C53.7987 233.273 50.1087 231.482 47.0477 234.542ZM93.2267 234.051C89.7277 236.089 91.7957 240.971 96.1577 240.971C98.8997 240.971 100.388 236.773 98.4657 234.458C97.0337 232.733 95.6717 232.627 93.2267 234.051ZM138.563 234.368C137.881 235.189 137.471 236.898 137.65 238.166C137.905 239.966 138.611 240.471 140.868 240.471C144.433 240.471 146.478 237.787 144.87 235.221C143.434 232.931 140.127 232.483 138.563 234.368ZM184.647 233.845C183.891 234.324 183.459 235.937 183.647 237.58C183.908 239.87 184.535 240.535 186.66 240.781C188.55 240.999 189.668 240.482 190.445 239.031C192.582 235.038 188.51 231.396 184.647 233.845ZM230.048 234.542C228.139 236.452 228.104 237.079 229.783 239.375C231.868 242.227 235.903 241.116 236.307 237.58C236.799 233.273 233.109 231.482 230.048 234.542ZM275.677 234.171C275.017 234.831 274.477 236.126 274.477 237.049C274.477 241.361 281.705 242.393 282.304 238.166C282.902 233.943 278.537 231.311 275.677 234.171ZM321.563 234.368C320.881 235.189 320.471 236.898 320.65 238.166C320.905 239.966 321.611 240.471 323.868 240.471C327.433 240.471 329.478 237.787 327.87 235.221C326.434 232.931 323.127 232.483 321.563 234.368ZM367.523 234.416C365.612 236.718 366.633 240.422 369.282 240.798C373.705 241.425 375.936 237.573 372.906 234.542C370.947 232.584 369.08 232.54 367.523 234.416ZM413.048 234.542C411.189 236.402 411.173 236.535 412.512 239.037C414.64 243.012 421.154 240.231 419.692 235.971C418.597 232.782 415.479 232.112 413.048 234.542ZM458.309 235.441C456.838 238.668 458.772 241.192 462.391 240.772C464.216 240.559 465.073 239.793 465.304 238.166C466.009 233.193 460.339 230.985 458.309 235.441ZM504.523 234.416C503.863 235.211 503.471 236.898 503.65 238.166C503.902 239.945 504.711 240.542 507.193 240.782C509.931 241.047 510.504 240.711 511.054 238.519C512.186 234.009 507.37 230.985 504.523 234.416ZM550.647 233.845C549.891 234.324 549.459 235.937 549.647 237.58C549.905 239.839 550.542 240.537 552.563 240.772C556.182 241.192 558.116 238.668 556.645 235.441C555.508 232.944 553.085 232.299 550.647 233.845ZM596.048 234.542C594.189 236.402 594.173 236.535 595.512 239.037C596.1 240.134 597.598 240.971 598.977 240.971C601.012 240.971 603.477 238.581 603.477 236.608C603.477 235.563 600.27 232.971 598.977 232.971C598.231 232.971 596.913 233.678 596.048 234.542ZM642.048 234.542C639.018 237.573 641.249 241.425 645.672 240.798C648.321 240.422 649.342 236.718 647.431 234.416C645.874 232.54 644.007 232.584 642.048 234.542ZM687.488 234.458C686.78 235.311 686.523 237.017 686.884 238.458C687.38 240.434 688.148 240.971 690.477 240.971C692.806 240.971 693.574 240.434 694.07 238.458C694.793 235.577 693.087 232.971 690.477 232.971C689.512 232.971 688.167 233.64 687.488 234.458ZM733.523 234.416C731.612 236.718 732.633 240.422 735.282 240.798C739.705 241.425 741.936 237.573 738.906 234.542C736.947 232.584 735.08 232.54 733.523 234.416ZM779.877 233.736C778.191 234.862 777.649 237.28 778.647 239.221C779.858 241.576 784.145 241.459 785.442 239.037C786.781 236.535 786.765 236.402 784.906 234.542C783.202 232.839 781.604 232.583 779.877 233.736ZM825.048 234.542C822.018 237.573 824.249 241.425 828.672 240.798C831.321 240.422 832.342 236.718 830.431 234.416C828.874 232.54 827.007 232.584 825.048 234.542ZM870.677 234.171C867.817 237.031 870.449 241.396 874.672 240.798C878.899 240.199 877.867 232.971 873.555 232.971C872.632 232.971 871.337 233.511 870.677 234.171ZM916.523 234.416C914.492 236.863 915.637 240.431 918.563 240.772C922.182 241.192 924.116 238.668 922.645 235.441C921.395 232.698 918.369 232.191 916.523 234.416ZM962.877 233.736C961.191 234.862 960.649 237.28 961.647 239.221C962.858 241.576 967.145 241.459 968.442 239.037C969.781 236.535 969.765 236.402 967.906 234.542C966.202 232.839 964.604 232.583 962.877 233.736ZM23.5157 281.899C21.1337 286.348 26.4767 289.924 29.6497 286.005C31.0147 284.32 31.2017 283.326 30.4267 281.878C29.0957 279.39 24.8507 279.403 23.5157 281.899ZM69.7197 281.128C66.4167 284.431 71.4037 289.936 74.9977 286.954C77.4837 284.89 76.5007 280.532 73.4697 280.178C72.0907 280.017 70.4037 280.444 69.7197 281.128ZM114.9 282.423C114.161 285.367 115.84 287.971 118.477 287.971C120.901 287.971 122.695 285.536 122.304 282.776C122.052 280.997 121.243 280.4 118.761 280.16C116.023 279.895 115.45 280.231 114.9 282.423ZM161.64 280.849C159.837 281.992 160.545 286.004 162.79 287.369C164.262 288.264 164.963 288.031 166.525 286.128C169.736 282.216 165.945 278.12 161.64 280.849ZM207.19 280.592C205.792 281.989 206.508 285.917 208.339 286.897C210.97 288.305 213.767 286.069 213.322 282.915C213.074 281.158 212.263 280.388 210.44 280.175C209.044 280.012 207.581 280.2 207.19 280.592ZM252.72 281.128C249.417 284.431 254.404 289.936 257.998 286.954C260.484 284.89 259.501 280.532 256.47 280.178C255.091 280.017 253.404 280.444 252.72 281.128ZM297.884 282.484C297.161 285.365 298.867 287.971 301.477 287.971C304.087 287.971 305.793 285.365 305.07 282.484C304.574 280.508 303.806 279.971 301.477 279.971C299.148 279.971 298.38 280.508 297.884 282.484ZM344.144 280.638C343.057 281.724 343.383 285.477 344.677 286.771C347.691 289.785 352.151 286.793 351.07 282.484C350.583 280.545 349.796 279.971 347.625 279.971C346.077 279.971 344.51 280.271 344.144 280.638ZM389.527 281.878C388.752 283.326 388.939 284.32 390.304 286.005C393.477 289.924 398.82 286.348 396.438 281.899C395.103 279.403 390.858 279.39 389.527 281.878ZM435.517 281.423C432.653 284.874 438.049 289.828 441.218 286.658C443.505 284.371 442.099 279.971 439.08 279.971C437.783 279.971 436.18 280.624 435.517 281.423ZM481.084 281.553C480.022 284.32 480.421 285.871 482.477 286.971C486.514 289.132 490.464 284.358 487.277 281.171C485.563 279.457 481.799 279.689 481.084 281.553ZM527.144 280.638C525.929 281.852 526.452 285.706 528.007 286.996C529.176 287.966 530.118 288 532.007 287.139C534.488 286.009 534.996 284.487 533.87 281.553C533.267 279.981 528.455 279.327 527.144 280.638ZM573.144 280.638C571.955 281.826 572.438 285.694 573.929 286.931C575.677 288.382 579.065 287.488 579.881 285.36C581.22 281.872 575.746 278.035 573.144 280.638ZM618.516 281.899C616.134 286.348 621.477 289.924 624.65 286.005C626.015 284.32 626.202 283.326 625.427 281.878C624.096 279.39 619.851 279.403 618.516 281.899ZM663.9 282.423C663.161 285.367 664.84 287.971 667.477 287.971C669.901 287.971 671.695 285.536 671.304 282.776C671.052 280.997 670.243 280.4 667.761 280.16C665.023 279.895 664.45 280.231 663.9 282.423ZM710.144 280.638C709.057 281.724 709.383 285.477 710.677 286.771C713.691 289.785 718.151 286.793 717.07 282.484C716.583 280.545 715.796 279.971 713.625 279.971C712.077 279.971 710.51 280.271 710.144 280.638ZM756.19 280.592C754.918 281.863 755.436 285.692 757.061 287.041C759.341 288.933 761.977 286.961 761.977 283.362C761.977 281.011 761.503 280.416 759.44 280.175C758.044 280.012 756.581 280.2 756.19 280.592ZM801.548 281.839C799.502 285.662 802.786 288.946 806.609 286.9C807.99 286.161 808.502 285.017 808.287 283.154C807.885 279.67 803.198 278.756 801.548 281.839ZM847.69 281.555C845.556 285.368 848.828 288.924 852.609 286.9C855.684 285.255 854.778 280.564 851.309 280.163C849.598 279.965 848.301 280.463 847.69 281.555ZM893.677 281.171C891.895 282.953 892.221 285.33 894.437 286.714C896.85 288.221 899.197 287.43 900.022 284.831C901.207 281.095 896.48 278.368 893.677 281.171ZM939.144 280.638C937.955 281.826 938.438 285.694 939.929 286.931C941.845 288.521 945.212 287.38 946.008 284.872C946.357 283.774 946.1 282.222 945.437 281.423C944.2 279.932 940.332 279.449 939.144 280.638ZM984.657 281.613C982.675 285.156 985.934 288.884 989.738 287.425C993.492 285.984 992.071 279.971 987.977 279.971C986.657 279.971 985.163 280.71 984.657 281.613ZM1.08068 328.126C-0.00532365 329.676 -0.151324 330.797 0.559676 332.126C1.86168 334.559 6.12168 334.504 7.44168 332.037C8.78068 329.535 8.76468 329.402 6.90568 327.542C4.74768 325.385 2.86868 325.573 1.08068 328.126ZM47.0477 327.542C45.0897 329.501 45.0457 331.368 46.9217 332.925C49.2237 334.836 52.9277 333.815 53.3037 331.166C53.9307 326.743 50.0787 324.512 47.0477 327.542ZM93.0207 327.315C91.6657 328.306 91.3577 329.359 91.8487 331.315C92.3817 333.442 93.1047 333.971 95.4767 333.971C97.8057 333.971 98.5737 333.434 99.0697 331.458C99.7257 328.842 98.1437 325.971 96.0457 325.971C95.3927 325.971 94.0317 326.576 93.0207 327.315ZM138.563 327.368C137.881 328.189 137.471 329.898 137.65 331.166C137.905 332.966 138.611 333.471 140.868 333.471C144.433 333.471 146.478 330.787 144.87 328.221C143.434 325.931 140.127 325.483 138.563 327.368ZM184.523 327.416C182.612 329.718 183.633 333.422 186.282 333.798C190.705 334.425 192.936 330.573 189.906 327.542C187.947 325.584 186.08 325.54 184.523 327.416ZM229.477 327.971C227.84 331.029 229.905 334.172 233.294 333.781C235.217 333.559 236.07 332.818 236.304 331.166C236.965 326.501 231.606 323.993 229.477 327.971ZM275.677 327.171C272.817 330.031 275.449 334.396 279.672 333.798C283.899 333.199 282.867 325.971 278.555 325.971C277.632 325.971 276.337 326.511 275.677 327.171ZM321.563 327.368C320.881 328.189 320.471 329.898 320.65 331.166C320.905 332.966 321.611 333.471 323.868 333.471C327.433 333.471 329.478 330.787 327.87 328.221C326.434 325.931 323.127 325.483 321.563 327.368ZM367.523 327.416C365.492 329.863 366.637 333.431 369.563 333.772C373.182 334.192 375.116 331.668 373.645 328.441C372.395 325.698 369.369 325.191 367.523 327.416ZM413.048 327.542C411.189 329.402 411.173 329.535 412.512 332.037C413.1 333.134 414.598 333.971 415.977 333.971C418.012 333.971 420.477 331.581 420.477 329.608C420.477 328.563 417.27 325.971 415.977 325.971C415.231 325.971 413.913 326.678 413.048 327.542ZM458.677 327.171C455.982 329.866 458.083 333.971 462.158 333.971C463.76 333.971 464.627 333.223 465.07 331.458C466.151 327.149 461.691 324.157 458.677 327.171ZM504.523 327.416C503.863 328.211 503.471 329.898 503.65 331.166C503.902 332.945 504.711 333.542 507.193 333.782C509.931 334.047 510.504 333.711 511.054 331.519C512.186 327.009 507.37 323.985 504.523 327.416ZM550.523 327.416C548.492 329.863 549.637 333.431 552.563 333.772C556.182 334.192 558.116 331.668 556.645 328.441C555.395 325.698 552.369 325.191 550.523 327.416ZM596.048 327.542C594.189 329.402 594.173 329.535 595.512 332.037C596.903 334.635 601.099 334.546 602.522 331.888C603.411 330.226 603.286 329.417 601.902 327.888C599.795 325.56 598.129 325.462 596.048 327.542ZM641.309 328.441C639.838 331.668 641.772 334.192 645.391 333.772C647.216 333.559 648.073 332.793 648.304 331.166C649.009 326.193 643.339 323.985 641.309 328.441ZM687.488 327.458C686.78 328.311 686.523 330.017 686.884 331.458C687.38 333.434 688.148 333.971 690.477 333.971C692.806 333.971 693.574 333.434 694.07 331.458C694.793 328.577 693.087 325.971 690.477 325.971C689.512 325.971 688.167 326.64 687.488 327.458ZM733.523 327.416C731.492 329.863 732.637 333.431 735.563 333.772C739.182 334.192 741.116 331.668 739.645 328.441C738.395 325.698 735.369 325.191 733.523 327.416ZM779.048 327.542C777.189 329.402 777.173 329.535 778.512 332.037C779.1 333.134 780.598 333.971 781.977 333.971C784.012 333.971 786.477 331.581 786.477 329.608C786.477 328.563 783.27 325.971 781.977 325.971C781.231 325.971 779.913 326.678 779.048 327.542ZM825.048 327.542C822.018 330.573 824.249 334.425 828.672 333.798C831.321 333.422 832.342 329.718 830.431 327.416C828.874 325.54 827.007 325.584 825.048 327.542ZM870.488 327.458C869.78 328.311 869.523 330.017 869.884 331.458C870.38 333.434 871.148 333.971 873.477 333.971C875.806 333.971 876.574 333.434 877.07 331.458C877.793 328.577 876.087 325.971 873.477 325.971C872.512 325.971 871.167 326.64 870.488 327.458ZM916.523 327.416C914.492 329.863 915.637 333.431 918.563 333.772C922.182 334.192 924.116 331.668 922.645 328.441C921.395 325.698 918.369 325.191 916.523 327.416ZM962.647 326.845C961.891 327.324 961.459 328.937 961.647 330.58C962.051 334.116 966.086 335.227 968.171 332.375C969.85 330.079 969.815 329.452 967.906 327.542C966.154 325.79 964.629 325.588 962.647 326.845ZM23.4767 374.971C22.7167 376.392 22.7167 377.55 23.4767 378.971C25.7277 383.177 32.1117 379.718 30.3977 375.221C29.2947 372.323 24.9767 372.168 23.4767 374.971ZM69.5587 374.372C67.9657 376.291 68.4837 378.946 70.7267 380.359C73.2917 381.974 75.9767 379.93 75.9767 376.362C75.9767 373.997 75.5067 373.416 73.3907 373.17C71.9687 373.005 70.2447 373.546 69.5587 374.372ZM115.727 373.615C115.04 373.902 114.477 375.17 114.477 376.432C114.477 380.881 119.52 382.444 121.865 378.721C123.924 375.45 119.713 371.947 115.727 373.615ZM161.144 373.638C160.057 374.724 160.383 378.477 161.677 379.771C164.91 383.004 170.421 378.018 167.502 374.501C166.212 372.946 162.358 372.423 161.144 373.638ZM206.657 374.613C204.675 378.156 207.934 381.884 211.738 380.425C215.492 378.984 214.071 372.971 209.977 372.971C208.657 372.971 207.163 373.71 206.657 374.613ZM252.494 374.45C251.484 375.668 251.441 376.597 252.309 378.501C254.339 382.957 260.009 380.749 259.304 375.776C258.902 372.94 254.464 372.076 252.494 374.45ZM298.517 374.423C295.86 377.624 299.762 382.541 303.227 380.359C306.689 378.178 305.456 372.971 301.477 372.971C300.512 372.971 299.18 373.624 298.517 374.423ZM344.144 373.638C343.057 374.724 343.383 378.477 344.677 379.771C347.91 383.004 353.421 378.018 350.502 374.501C349.212 372.946 345.358 372.423 344.144 373.638ZM389.657 374.613C387.669 378.166 390.936 381.883 394.759 380.416C398.633 378.93 397.218 372.971 392.992 372.971C391.663 372.971 390.163 373.71 389.657 374.613ZM435.494 374.45C434.484 375.668 434.441 376.597 435.309 378.501C437.339 382.957 443.009 380.749 442.304 375.776C441.902 372.94 437.464 372.076 435.494 374.45ZM481.677 374.171C479.198 376.65 481.026 380.971 484.555 380.971C487.094 380.971 488.784 378.332 488.07 375.484C487.379 372.733 483.842 372.006 481.677 374.171ZM526.861 374.413C525.361 378.322 529.021 382.378 532.227 380.359C536.003 377.981 534.373 372.971 529.823 372.971C528.498 372.971 527.165 373.62 526.861 374.413ZM573.144 373.638C571.833 374.949 572.487 379.761 574.059 380.364C578.297 381.99 581.518 378.784 579.477 374.971C578.452 373.055 574.548 372.233 573.144 373.638ZM618.477 374.971C617.098 377.548 618.797 380.971 621.455 380.971C624.203 380.971 626.646 377.155 625.394 374.816C624.073 372.347 619.83 372.442 618.477 374.971ZM664.559 374.372C662.966 376.291 663.484 378.946 665.727 380.359C668.292 381.974 670.977 379.93 670.977 376.362C670.977 373.997 670.507 373.416 668.391 373.17C666.969 373.005 665.245 373.546 664.559 374.372ZM710.727 373.615C710.04 373.902 709.477 375.17 709.477 376.432C709.477 380.881 714.52 382.444 716.865 378.721C718.924 375.45 714.713 371.947 710.727 373.615ZM756.144 373.638C754.833 374.949 755.487 379.761 757.059 380.364C761.297 381.99 764.518 378.784 762.477 374.971C761.452 373.055 757.548 372.233 756.144 373.638ZM801.548 374.839C800.113 377.519 801.172 379.856 804.161 380.606C807.319 381.399 808.719 379.96 808.305 376.343C808.046 374.073 807.414 373.406 805.294 373.161C803.431 372.946 802.287 373.458 801.548 374.839ZM847.494 374.45C846.484 375.668 846.441 376.597 847.309 378.501C849.339 382.957 855.009 380.749 854.304 375.776C853.902 372.94 849.464 372.076 847.494 374.45ZM893.517 374.423C890.86 377.624 894.762 382.541 898.227 380.359C901.689 378.178 900.456 372.971 896.477 372.971C895.512 372.971 894.18 373.624 893.517 374.423ZM939.144 373.638C938.057 374.724 938.383 378.477 939.677 379.771C942.91 383.004 948.421 378.018 945.502 374.501C944.212 372.946 940.358 372.423 939.144 373.638ZM984.512 374.905C983.173 377.407 983.189 377.54 985.048 379.4C988.604 382.955 993.825 379.359 991.477 374.971C990.097 372.392 985.879 372.352 984.512 374.905ZM1.08068 421.126C-0.00532365 422.676 -0.151324 423.797 0.559676 425.126C1.86168 427.559 6.12168 427.504 7.44168 425.037C8.78068 422.535 8.76468 422.402 6.90568 420.542C4.74768 418.385 2.86868 418.573 1.08068 421.126ZM47.0477 420.542C45.0897 422.501 45.0457 424.368 46.9217 425.925C49.2237 427.836 52.9277 426.815 53.3037 424.166C53.9307 419.743 50.0787 417.512 47.0477 420.542ZM93.0207 420.315C91.6507 421.317 91.3557 422.353 91.8637 424.376C92.4527 426.722 92.9837 427.05 95.7607 426.782C98.2427 426.542 99.0517 425.945 99.3037 424.166C99.6567 421.676 97.9597 418.971 96.0457 418.971C95.3927 418.971 94.0317 419.576 93.0207 420.315ZM138.523 420.416C136.612 422.718 137.633 426.422 140.282 426.798C144.705 427.425 146.936 423.573 143.906 420.542C141.947 418.584 140.08 418.54 138.523 420.416ZM184.523 420.416C182.612 422.718 183.633 426.422 186.282 426.798C190.705 427.425 192.936 423.573 189.906 420.542C187.947 418.584 186.08 418.54 184.523 420.416ZM230.048 420.542C228.139 422.452 228.104 423.079 229.783 425.375C231.647 427.925 235.882 427.139 236.304 424.166C236.931 419.743 233.079 417.512 230.048 420.542ZM276.021 420.315C274.651 421.317 274.356 422.353 274.864 424.376C275.453 426.722 275.984 427.05 278.761 426.782C281.243 426.542 282.052 425.945 282.304 424.166C282.657 421.676 280.96 418.971 279.046 418.971C278.393 418.971 277.032 419.576 276.021 420.315ZM322.073 420.277C320.975 421.08 320.42 422.525 320.632 424.027C321.102 427.355 326.957 428.186 327.947 425.066C328.696 422.705 326.972 418.971 325.133 418.971C324.432 418.971 323.056 419.559 322.073 420.277ZM367.523 420.416C365.612 422.718 366.633 426.422 369.282 426.798C373.705 427.425 375.936 423.573 372.906 420.542C370.947 418.584 369.08 418.54 367.523 420.416ZM413.048 420.542C411.189 422.402 411.173 422.535 412.512 425.037C413.832 427.504 418.092 427.559 419.394 425.126C420.105 423.797 419.959 422.676 418.873 421.126C417.085 418.573 415.206 418.385 413.048 420.542ZM459.021 420.315C457.651 421.317 457.356 422.353 457.864 424.376C458.453 426.722 458.984 427.05 461.761 426.782C464.243 426.542 465.052 425.945 465.304 424.166C465.657 421.676 463.96 418.971 462.046 418.971C461.393 418.971 460.032 419.576 459.021 420.315ZM504.523 420.416C503.863 421.211 503.471 422.898 503.65 424.166C503.92 426.071 504.584 426.471 507.477 426.471C510.37 426.471 511.034 426.071 511.304 424.166C511.695 421.406 509.901 418.971 507.477 418.971C506.512 418.971 505.182 419.621 504.523 420.416ZM550.523 420.416C548.612 422.718 549.633 426.422 552.282 426.798C556.705 427.425 558.936 423.573 555.906 420.542C553.947 418.584 552.08 418.54 550.523 420.416ZM596.048 420.542C594.189 422.402 594.173 422.535 595.512 425.037C596.832 427.504 601.092 427.559 602.394 425.126C603.105 423.797 602.959 422.676 601.873 421.126C600.085 418.573 598.206 418.385 596.048 420.542ZM642.048 420.542C638.988 423.603 640.779 427.293 645.086 426.801C647.22 426.557 648.063 425.868 648.304 424.166C648.931 419.743 645.079 417.512 642.048 420.542ZM687.488 420.458C686.767 421.327 686.522 423.015 686.9 424.519C687.45 426.711 688.023 427.047 690.761 426.782C693.302 426.536 694.049 425.958 694.322 424.027C694.891 419.999 689.992 417.441 687.488 420.458ZM733.523 420.416C731.38 422.997 732.642 426.433 735.868 426.801C740.175 427.293 741.966 423.603 738.906 420.542C736.947 418.584 735.08 418.54 733.523 420.416ZM779.877 419.736C778.191 420.862 777.649 423.28 778.647 425.221C779.858 427.576 784.145 427.459 785.442 425.037C786.781 422.535 786.765 422.402 784.906 420.542C783.202 418.839 781.604 418.583 779.877 419.736ZM825.048 420.542C821.988 423.603 823.779 427.293 828.086 426.801C830.22 426.557 831.063 425.868 831.304 424.166C831.931 419.743 828.079 417.512 825.048 420.542ZM871.021 420.315C869.666 421.306 869.358 422.359 869.849 424.315C870.382 426.442 871.105 426.971 873.477 426.971C875.849 426.971 876.572 426.442 877.105 424.315C877.596 422.359 877.288 421.306 875.933 420.315C874.922 419.576 873.817 418.971 873.477 418.971C873.137 418.971 872.032 419.576 871.021 420.315ZM916.523 420.416C914.38 422.997 915.642 426.433 918.868 426.801C923.175 427.293 924.966 423.603 921.906 420.542C919.947 418.584 918.08 418.54 916.523 420.416ZM962.523 420.416C961.863 421.211 961.471 422.898 961.65 424.166C962.072 427.139 966.307 427.925 968.171 425.375C969.85 423.079 969.815 422.452 967.906 420.542C965.947 418.584 964.08 418.54 962.523 420.416ZM23.5157 467.899C22.2427 470.276 23.0807 472.711 25.4287 473.456C29.3087 474.687 32.2677 471.136 30.2967 467.613C29.0327 465.356 24.7807 465.535 23.5157 467.899ZM69.5587 467.372C67.9657 469.291 68.4837 471.946 70.7267 473.359C73.2917 474.974 75.9767 472.93 75.9767 469.362C75.9767 466.997 75.5067 466.416 73.3907 466.17C71.9687 466.005 70.2447 466.546 69.5587 467.372ZM114.9 468.421C113.674 473.309 119.226 475.938 121.87 471.721C123.376 469.318 121.539 466.562 118.161 466.158C116.063 465.907 115.419 466.354 114.9 468.421ZM161.144 466.638C160.057 467.724 160.383 471.477 161.677 472.771C164.91 476.004 170.421 471.018 167.502 467.501C166.212 465.946 162.358 465.423 161.144 466.638ZM206.512 467.905C205.173 470.407 205.189 470.54 207.048 472.4C210.604 475.955 215.825 472.359 213.477 467.971C212.097 465.392 207.879 465.352 206.512 467.905ZM252.548 467.839C251.211 470.336 252.076 472.709 254.617 473.516C257.321 474.374 259.638 472.157 259.278 469.057C258.883 465.664 254.168 464.811 252.548 467.839ZM298.007 467.875C297.081 470.795 299.178 474.157 301.693 473.782C304.622 473.344 306.272 470.458 304.871 468.221C303.231 465.601 298.8 465.378 298.007 467.875ZM343.861 467.413C342.361 471.322 346.021 475.378 349.227 473.359C353.003 470.981 351.373 465.971 346.823 465.971C345.498 465.971 344.165 466.62 343.861 467.413ZM390.144 466.638C388.833 467.949 389.487 472.761 391.059 473.364C395.297 474.99 398.518 471.784 396.477 467.971C395.452 466.055 391.548 465.233 390.144 466.638ZM435.494 467.45C434.484 468.668 434.441 469.597 435.309 471.501C437.339 475.957 443.009 473.749 442.304 468.776C441.902 465.94 437.464 465.076 435.494 467.45ZM480.884 468.484C480.161 471.365 481.867 473.971 484.477 473.971C487.087 473.971 488.793 471.365 488.07 468.484C487.574 466.508 486.806 465.971 484.477 465.971C482.148 465.971 481.38 466.508 480.884 468.484ZM526.861 467.413C525.361 471.322 529.021 475.378 532.227 473.359C536.003 470.981 534.373 465.971 529.823 465.971C528.498 465.971 527.165 466.62 526.861 467.413ZM573.144 466.638C571.833 467.949 572.487 472.761 574.059 473.364C576.993 474.49 578.515 473.982 579.645 471.501C580.506 469.612 580.472 468.67 579.502 467.501C578.212 465.946 574.358 465.423 573.144 466.638ZM619.19 466.592C617.962 467.819 618.412 471.672 619.929 472.931C620.735 473.6 622.318 473.839 623.486 473.468C625.142 472.943 625.525 472.125 625.284 469.636C625.037 467.092 624.479 466.413 622.44 466.175C621.044 466.012 619.581 466.2 619.19 466.592ZM664.559 467.372C662.966 469.291 663.484 471.946 665.727 473.359C668.292 474.974 670.977 472.93 670.977 469.362C670.977 466.997 670.507 466.416 668.391 466.17C666.969 466.005 665.245 466.546 664.559 467.372ZM710.677 467.171C708.165 469.683 710.035 473.971 713.642 473.971C715.892 473.971 717.541 470.931 716.809 468.133C716.181 465.729 712.669 465.179 710.677 467.171ZM756.144 466.638C754.833 467.949 755.487 472.761 757.059 473.364C761.297 474.99 764.518 471.784 762.477 467.971C761.452 466.055 757.548 465.233 756.144 466.638ZM801.548 467.839C799.583 471.51 802.868 474.909 806.89 473.366C808.087 472.907 808.495 471.798 808.281 469.593C808.033 467.043 807.485 466.414 805.294 466.161C803.431 465.946 802.287 466.458 801.548 467.839ZM847.559 467.372C845.966 469.291 846.484 471.946 848.727 473.359C851.292 474.974 853.977 472.93 853.977 469.362C853.977 466.997 853.507 466.416 851.391 466.17C849.969 466.005 848.245 466.546 847.559 467.372ZM892.9 468.421C891.674 473.309 897.226 475.938 899.87 471.721C901.376 469.318 899.539 466.562 896.161 466.158C894.063 465.907 893.419 466.354 892.9 468.421ZM939.144 466.638C937.955 467.826 938.438 471.694 939.929 472.931C941.558 474.283 945.049 473.535 945.753 471.683C946.671 469.271 944.604 465.971 942.176 465.971C940.875 465.971 939.51 466.271 939.144 466.638ZM984.477 467.971C982.441 471.776 986.515 475.584 990.077 473.206C991.763 472.08 992.305 469.662 991.307 467.721C990.077 465.33 985.807 465.487 984.477 467.971ZM1.08068 514.126C-0.00532365 515.676 -0.151324 516.797 0.559676 518.126C1.86168 520.559 6.12168 520.504 7.44168 518.037C8.78068 515.535 8.76468 515.402 6.90568 513.542C4.74768 511.385 2.86868 511.573 1.08068 514.126ZM47.0477 513.542C44.0177 516.573 46.2487 520.425 50.6717 519.798C53.3207 519.422 54.3417 515.718 52.4307 513.416C50.8737 511.54 49.0067 511.584 47.0477 513.542ZM93.0207 513.315C89.1117 516.174 93.5737 522.175 97.8347 519.791C100.781 518.142 99.3067 511.971 95.9677 511.971C95.3577 511.971 94.0317 512.576 93.0207 513.315ZM138.677 513.171C135.125 516.723 139.247 522.221 143.322 519.367C145.875 517.579 146.063 515.7 143.906 513.542C142.027 511.663 140.307 511.541 138.677 513.171ZM184.523 513.416C182.612 515.718 183.633 519.422 186.282 519.798C190.705 520.425 192.936 516.573 189.906 513.542C187.947 511.584 186.08 511.54 184.523 513.416ZM230.048 513.542C228.09 515.501 228.046 517.368 229.922 518.925C232.224 520.836 235.928 519.815 236.304 517.166C236.931 512.743 233.079 510.512 230.048 513.542ZM276.048 513.542C273.978 515.613 274.338 517.808 277.039 519.599C278.788 520.758 279.394 520.753 281.017 519.566C282.606 518.403 282.762 517.684 281.934 515.328C280.748 511.956 278.36 511.231 276.048 513.542ZM322.021 513.315C320.666 514.306 320.358 515.359 320.849 517.315C321.382 519.442 322.105 519.971 324.477 519.971C326.806 519.971 327.574 519.434 328.07 517.458C328.726 514.842 327.144 511.971 325.046 511.971C324.393 511.971 323.032 512.576 322.021 513.315ZM367.677 513.171C364.125 516.723 368.247 522.221 372.322 519.367C374.875 517.579 375.063 515.7 372.906 513.542C371.027 511.663 369.307 511.541 367.677 513.171ZM413.048 513.542C410.891 515.7 411.079 517.579 413.632 519.367C416.375 521.288 419.477 519.839 419.477 516.636C419.477 512.37 415.929 510.662 413.048 513.542ZM459.048 513.542C455.988 516.603 457.779 520.293 462.086 519.801C464.22 519.557 465.063 518.868 465.304 517.166C465.931 512.743 462.079 510.512 459.048 513.542ZM505.227 513.051C501.312 515.332 504.669 521.986 508.913 520.357C511.451 519.383 512.101 514.9 509.933 513.315C507.767 511.731 507.517 511.717 505.227 513.051ZM550.677 513.171C547.125 516.723 551.247 522.221 555.322 519.367C557.875 517.579 558.063 515.7 555.906 513.542C554.027 511.663 552.307 511.541 550.677 513.171ZM596.048 513.542C594.15 515.44 594.105 516.105 595.727 518.211C597.597 520.637 600.508 520.735 602.068 518.425C603.256 516.666 603.233 516.068 601.907 514.175C600.087 511.576 598.217 511.374 596.048 513.542ZM642.048 513.542C639.165 516.426 640.553 519.971 644.565 519.971C646.8 519.971 647.579 519.413 648.07 517.458C649.2 512.953 645.224 510.367 642.048 513.542ZM687.488 513.458C686.767 514.327 686.522 516.015 686.9 517.519C687.45 519.711 688.023 520.047 690.761 519.782C693.302 519.536 694.049 518.958 694.322 517.027C694.891 512.999 689.992 510.441 687.488 513.458ZM733.677 513.171C730.96 515.888 733.808 521.523 737.256 520.251C740.682 518.988 741.406 516.043 738.906 513.542C737.027 511.663 735.307 511.541 733.677 513.171ZM779.706 513.142C777.829 515.019 778.241 518.774 780.454 519.959C782.031 520.803 782.855 520.593 784.527 518.921C786.415 517.033 786.48 516.608 785.181 514.648C783.45 512.037 781.381 511.467 779.706 513.142ZM825.048 513.542C823.345 515.246 823.089 516.844 824.242 518.571C826.345 521.72 831.477 520.347 831.477 516.636C831.477 512.37 827.929 510.662 825.048 513.542ZM871.021 513.315C867.112 516.174 871.574 522.175 875.835 519.791C878.096 518.525 877.913 514.275 875.543 513.006C873.121 511.71 873.226 511.703 871.021 513.315ZM916.523 513.416C914.38 515.997 915.642 519.433 918.868 519.801C923.175 520.293 924.966 516.603 921.906 513.542C919.947 511.584 918.08 511.54 916.523 513.416ZM962.677 513.171C960.825 515.023 961.256 518.782 963.454 519.959C967.505 522.127 970.876 515.356 967.05 512.736C965.486 511.665 964.039 511.809 962.677 513.171ZM23.4767 560.971C21.9637 563.798 23.8507 566.971 27.0437 566.971C29.9497 566.971 31.7747 563.492 30.3237 560.721C29.0707 558.331 24.8067 558.487 23.4767 560.971ZM69.6767 560.171C67.1977 562.65 69.0257 566.971 72.5547 566.971C75.0937 566.971 76.7837 564.332 76.0697 561.484C75.3787 558.733 71.8417 558.006 69.6767 560.171ZM115.517 560.423C112.86 563.624 116.762 568.541 120.227 566.359C123.689 564.178 122.456 558.971 118.477 558.971C117.512 558.971 116.18 559.624 115.517 560.423ZM161.144 559.638C159.833 560.949 160.487 565.761 162.059 566.364C164.993 567.49 166.515 566.982 167.645 564.501C168.506 562.612 168.472 561.67 167.502 560.501C166.212 558.946 162.358 558.423 161.144 559.638ZM206.477 560.971C204.981 563.766 206.851 566.971 209.977 566.971C213.103 566.971 214.973 563.766 213.477 560.971C212.858 559.813 211.383 558.971 209.977 558.971C208.571 558.971 207.096 559.813 206.477 560.971ZM252.559 560.372C250.966 562.291 251.484 564.946 253.727 566.359C256.292 567.974 258.977 565.93 258.977 562.362C258.977 559.997 258.507 559.416 256.391 559.17C254.969 559.005 253.245 559.546 252.559 560.372ZM298.517 560.423C295.86 563.624 299.762 568.541 303.227 566.359C306.689 564.178 305.456 558.971 301.477 558.971C300.512 558.971 299.18 559.624 298.517 560.423ZM344.727 559.615C344.04 559.902 343.477 561.17 343.477 562.432C343.477 566.881 348.52 568.444 350.865 564.721C352.924 561.45 348.713 557.947 344.727 559.615ZM389.791 560.721C389.449 561.683 389.009 562.772 388.814 563.14C388.21 564.278 391.515 566.971 393.513 566.971C396.16 566.971 397.853 563.542 396.477 560.971C395.132 558.457 390.657 558.29 389.791 560.721ZM435.72 560.128C432.641 563.207 435.622 567.653 440.025 566.548C442.217 565.998 442.553 565.425 442.288 562.687C442.038 560.101 441.486 559.414 439.47 559.178C438.091 559.017 436.404 559.444 435.72 560.128ZM481.517 560.423C478.86 563.624 482.762 568.541 486.227 566.359C489.689 564.178 488.456 558.971 484.477 558.971C483.512 558.971 482.18 559.624 481.517 560.423ZM527.517 560.423C524.86 563.624 528.762 568.541 532.227 566.359C535.689 564.178 534.456 558.971 530.477 558.971C529.512 558.971 528.18 559.624 527.517 560.423ZM573.144 559.638C571.833 560.949 572.487 565.761 574.059 566.364C578.297 567.99 581.518 564.784 579.477 560.971C578.452 559.055 574.548 558.233 573.144 559.638ZM618.509 560.911C616.372 564.904 620.444 568.546 624.307 566.097C625.063 565.618 625.495 564.005 625.307 562.362C625.046 560.072 624.419 559.407 622.294 559.161C620.404 558.943 619.286 559.46 618.509 560.911ZM664.517 560.423C661.86 563.624 665.762 568.541 669.227 566.359C672.689 564.178 671.456 558.971 667.477 558.971C666.512 558.971 665.18 559.624 664.517 560.423ZM710.517 560.423C707.86 563.624 711.762 568.541 715.227 566.359C718.689 564.178 717.456 558.971 713.477 558.971C712.512 558.971 711.18 559.624 710.517 560.423ZM756.144 559.638C754.833 560.949 755.487 565.761 757.059 566.364C759.993 567.49 761.515 566.982 762.645 564.501C763.506 562.612 763.472 561.67 762.502 560.501C761.212 558.946 757.358 558.423 756.144 559.638ZM801.509 560.911C799.839 564.032 801.867 567.177 805.294 566.781C807.635 566.511 807.977 566.024 807.977 562.971C807.977 559.918 807.635 559.431 805.294 559.161C803.404 558.943 802.286 559.46 801.509 560.911ZM847.517 560.423C844.862 563.621 848.76 568.537 852.227 566.364C854.422 564.988 855.092 560.976 853.314 559.849C851.287 558.564 848.86 558.804 847.517 560.423ZM893.517 560.423C890.86 563.624 894.762 568.541 898.227 566.359C901.689 564.178 900.456 558.971 896.477 558.971C895.512 558.971 894.18 559.624 893.517 560.423ZM939.144 559.638C937.833 560.949 938.487 565.761 940.059 566.364C944.297 567.99 947.518 564.784 945.477 560.971C944.452 559.055 940.548 558.233 939.144 559.638ZM984.477 560.971C982.129 565.359 987.35 568.955 990.906 565.4C992.765 563.54 992.781 563.407 991.442 560.905C990.075 558.352 985.857 558.392 984.477 560.971ZM1.10868 607.086C-1.65632 611.033 2.38368 615.125 6.32168 612.367C8.95768 610.521 9.05468 608.804 6.64768 606.626C4.22068 604.429 2.89268 604.539 1.10868 607.086ZM47.0477 606.542C44.9677 608.623 45.0657 610.289 47.3937 612.396C51.1727 615.816 55.8987 609.793 52.2767 606.171C50.6467 604.541 48.9267 604.663 47.0477 606.542ZM93.0207 606.315C90.8527 607.9 91.5027 612.383 94.0407 613.357C98.4077 615.033 101.659 608.209 97.5427 606.006C95.1207 604.71 95.2257 604.703 93.0207 606.315ZM139.227 606.051C135.977 607.944 137.965 613.971 141.84 613.971C142.885 613.971 145.477 610.764 145.477 609.471C145.477 608.05 142.825 604.949 141.656 605.001C141.282 605.018 140.19 605.49 139.227 606.051ZM185.227 606.051C182.925 607.392 182.984 611.637 185.322 612.888C186.651 613.599 187.772 613.453 189.322 612.367C191.875 610.579 192.063 608.7 189.906 606.542C188.084 604.721 187.598 604.67 185.227 606.051ZM230.042 606.899C226.827 610.452 230.64 615.138 234.835 612.791C237.801 611.131 236.302 604.971 232.932 604.971C232.302 604.971 231.002 605.839 230.042 606.899ZM276.048 606.542C275.184 607.407 274.477 608.725 274.477 609.471C274.477 610.764 277.069 613.971 278.114 613.971C280.087 613.971 282.477 611.506 282.477 609.471C282.477 608.092 281.64 606.594 280.543 606.006C278.041 604.667 277.908 604.683 276.048 606.542ZM322.227 606.051C318.977 607.944 320.965 613.971 324.84 613.971C325.885 613.971 328.477 610.764 328.477 609.471C328.477 608.05 325.825 604.949 324.656 605.001C324.282 605.018 323.189 605.49 322.227 606.051ZM368.227 606.051C364.977 607.944 366.965 613.971 370.84 613.971C371.885 613.971 374.477 610.764 374.477 609.471C374.477 608.05 371.825 604.949 370.656 605.001C370.282 605.018 369.189 605.49 368.227 606.051ZM413.048 606.542C412.184 607.407 411.484 608.644 411.492 609.292C411.544 613.292 416.847 614.679 419.145 611.294C420.486 609.32 420.431 608.925 418.55 607.044C416.065 604.559 415.119 604.472 413.048 606.542ZM459.048 606.542C458.184 607.407 457.477 608.725 457.477 609.471C457.477 610.764 460.069 613.971 461.114 613.971C463.087 613.971 465.477 611.506 465.477 609.471C465.477 608.092 464.64 606.594 463.543 606.006C461.041 604.667 460.908 604.683 459.048 606.542ZM505.227 606.051C500.864 608.592 505.019 615.357 509.477 612.971C512.056 611.591 512.096 607.373 509.543 606.006C507.241 604.774 507.423 604.772 505.227 606.051ZM551.227 606.051C547.977 607.944 549.965 613.971 553.84 613.971C554.885 613.971 557.477 610.764 557.477 609.471C557.477 608.05 554.825 604.949 553.656 605.001C553.282 605.018 552.189 605.49 551.227 606.051ZM596.085 607.12C594.751 609.025 594.71 609.69 595.826 611.37C597.731 614.24 599.069 614.379 601.488 611.96C603.414 610.034 603.482 609.61 602.181 607.648C600.186 604.639 597.958 604.446 596.085 607.12ZM642.048 606.542C639.618 608.973 640.288 612.091 643.477 613.186C647.737 614.648 650.518 608.134 646.543 606.006C644.041 604.667 643.908 604.683 642.048 606.542ZM688.227 606.051C683.864 608.592 688.019 615.357 692.477 612.971C695.056 611.591 695.096 607.373 692.543 606.006C690.241 604.774 690.423 604.772 688.227 606.051ZM734.227 606.051C730.977 607.944 732.965 613.971 736.84 613.971C737.885 613.971 740.477 610.764 740.477 609.471C740.477 608.05 737.825 604.949 736.656 605.001C736.282 605.018 735.189 605.49 734.227 606.051ZM779.081 607.126C777.557 609.302 778.18 612.052 780.526 613.502C781.875 614.335 786.477 611.32 786.477 609.603C786.477 608.047 783.308 604.971 781.705 604.971C781.092 604.971 779.911 605.941 779.081 607.126ZM825.048 606.542C824.184 607.407 823.477 608.725 823.477 609.471C823.477 610.764 826.069 613.971 827.114 613.971C829.087 613.971 831.477 611.506 831.477 609.471C831.477 608.092 830.64 606.594 829.543 606.006C827.041 604.667 826.908 604.683 825.048 606.542ZM871.227 606.051C866.864 608.592 871.019 615.357 875.477 612.971C878.056 611.591 878.096 607.373 875.543 606.006C873.241 604.774 873.423 604.772 871.227 606.051ZM917.227 606.051C913.977 607.944 915.965 613.971 919.84 613.971C920.885 613.971 923.477 610.764 923.477 609.471C923.477 608.05 920.825 604.949 919.656 605.001C919.282 605.018 918.189 605.49 917.227 606.051ZM962.109 607.086C960.362 609.58 960.921 611.603 963.778 613.132C965.491 614.049 966.153 613.855 967.66 611.993C969.881 609.251 969.912 608.549 967.906 606.542C965.757 604.394 963.87 604.571 962.109 607.086ZM23.4767 653.971C21.9637 656.798 23.8507 659.971 27.0437 659.971C29.9497 659.971 31.7747 656.492 30.3237 653.721C29.0707 651.331 24.8067 651.487 23.4767 653.971ZM69.5167 653.423C66.8597 656.624 70.7617 661.541 74.2267 659.359C77.6887 657.178 76.4557 651.971 72.4767 651.971C71.5117 651.971 70.1797 652.624 69.5167 653.423ZM115.517 653.423C112.86 656.624 116.762 661.541 120.227 659.359C123.689 657.178 122.456 651.971 118.477 651.971C117.512 651.971 116.18 652.624 115.517 653.423ZM161.727 652.633C159.908 653.367 160.168 658.638 162.059 659.364C164.993 660.49 166.515 659.982 167.645 657.501C169.448 653.544 166.163 650.843 161.727 652.633ZM206.477 653.971C204.981 656.766 206.851 659.971 209.977 659.971C213.103 659.971 214.973 656.766 213.477 653.971C212.858 652.813 211.383 651.971 209.977 651.971C208.571 651.971 207.096 652.813 206.477 653.971ZM252.72 653.128C249.641 656.207 252.622 660.653 257.025 659.548C259.217 658.998 259.553 658.425 259.288 655.687C259.038 653.101 258.486 652.414 256.47 652.178C255.091 652.017 253.404 652.444 252.72 653.128ZM298.517 653.423C295.86 656.624 299.762 661.541 303.227 659.359C306.689 657.178 305.456 651.971 301.477 651.971C300.512 651.971 299.18 652.624 298.517 653.423ZM344.727 652.633C344.04 652.911 343.477 654.442 343.477 656.035C343.477 658.296 344.029 659.072 345.99 659.564C348.838 660.278 351.477 658.588 351.477 656.049C351.477 652.82 348.277 651.201 344.727 652.633ZM389.563 654.221C388.408 657.279 390.007 659.971 392.977 659.971C396.103 659.971 397.973 656.766 396.477 653.971C394.976 651.167 390.657 651.323 389.563 654.221ZM435.509 653.911C433.839 657.032 435.867 660.177 439.294 659.781C441.635 659.511 441.977 659.024 441.977 655.971C441.977 652.918 441.635 652.431 439.294 652.161C437.404 651.943 436.286 652.46 435.509 653.911ZM481.517 653.423C478.86 656.624 482.762 661.541 486.227 659.359C489.689 657.178 488.456 651.971 484.477 651.971C483.512 651.971 482.18 652.624 481.517 653.423ZM527.517 653.423C524.86 656.624 528.762 661.541 532.227 659.359C535.689 657.178 534.456 651.971 530.477 651.971C529.512 651.971 528.18 652.624 527.517 653.423ZM572.867 653.398C571.652 656.564 572.921 659.464 575.66 659.781C579.049 660.172 581.114 657.029 579.477 653.971C578.232 651.645 573.69 651.251 572.867 653.398ZM618.477 653.971C616.84 657.029 618.905 660.172 622.294 659.781C624.419 659.535 625.046 658.87 625.307 656.58C625.824 652.047 620.579 650.044 618.477 653.971ZM664.517 653.423C661.86 656.624 665.762 661.541 669.227 659.359C672.689 657.178 671.456 651.971 667.477 651.971C666.512 651.971 665.18 652.624 664.517 653.423ZM710.517 653.423C707.86 656.624 711.762 661.541 715.227 659.359C718.689 657.178 717.456 651.971 713.477 651.971C712.512 651.971 711.18 652.624 710.517 653.423ZM756.144 652.638C754.833 653.949 755.487 658.761 757.059 659.364C761.297 660.99 764.518 657.784 762.477 653.971C761.452 652.055 757.548 651.233 756.144 652.638ZM801.509 653.911C799.839 657.032 801.867 660.177 805.294 659.781C807.635 659.511 807.977 659.024 807.977 655.971C807.977 652.918 807.635 652.431 805.294 652.161C803.404 651.943 802.286 652.46 801.509 653.911ZM847.677 653.171C844.663 656.185 847.655 660.645 851.964 659.564C856.119 658.521 854.836 651.971 850.477 651.971C849.597 651.971 848.337 652.511 847.677 653.171ZM893.517 653.423C890.86 656.624 894.762 661.541 898.227 659.359C901.689 657.178 900.456 651.971 896.477 651.971C895.512 651.971 894.18 652.624 893.517 653.423ZM939.647 652.845C938.891 653.324 938.459 654.937 938.647 656.58C938.908 658.87 939.535 659.535 941.66 659.781C943.55 659.999 944.668 659.482 945.445 658.031C947.582 654.038 943.51 650.396 939.647 652.845ZM984.509 653.911C982.839 657.032 984.867 660.177 988.294 659.781C990.635 659.511 990.977 659.024 990.977 655.971C990.977 652.918 990.635 652.431 988.294 652.161C986.404 651.943 985.286 652.46 984.509 653.911ZM2.09168 699.264C-0.125324 700.884 0.262676 704.833 2.78968 706.369C4.26468 707.266 4.96768 707.025 6.56568 705.077C8.27768 702.991 8.35568 702.421 7.16768 700.632C5.38968 697.954 4.28768 697.657 2.09168 699.264ZM47.0477 699.542C44.9677 701.623 45.0657 703.289 47.3937 705.396C48.9227 706.78 49.7317 706.905 51.3937 706.016C54.0517 704.593 54.1407 700.397 51.5427 699.006C49.0407 697.667 48.9077 697.683 47.0477 699.542ZM92.9237 700.03C90.8407 702.332 91.8137 705.2 94.8817 705.804C98.9327 706.6 101.15 700.937 97.5427 699.006C95.0167 697.655 95.0867 697.639 92.9237 700.03ZM139.021 699.315C136.882 700.879 137.49 705.378 139.968 706.329C143.959 707.861 146.851 703.146 143.912 699.899C141.839 697.609 141.423 697.559 139.021 699.315ZM185.073 699.277C183.975 700.08 183.42 701.525 183.632 703.027C183.91 704.999 184.556 705.471 186.977 705.471C189.543 705.471 190.025 705.052 190.307 702.58C190.771 698.514 188.272 696.938 185.073 699.277ZM230.523 699.416C229.863 700.211 229.471 701.898 229.65 703.166C229.909 704.988 230.606 705.471 232.977 705.471C235.398 705.471 236.044 704.999 236.322 703.027C236.534 701.525 235.979 700.08 234.881 699.277C232.612 697.618 231.999 697.637 230.523 699.416ZM276.048 699.542C272.493 703.098 276.089 708.319 280.477 705.971C283.056 704.591 283.096 700.373 280.543 699.006C278.041 697.667 277.908 697.683 276.048 699.542ZM322.227 699.051C318.977 700.944 320.965 706.971 324.84 706.971C325.885 706.971 328.477 703.764 328.477 702.471C328.477 701.05 325.825 697.949 324.656 698.001C324.282 698.018 323.189 698.49 322.227 699.051ZM368.073 699.277C365.921 700.851 366.255 704.814 368.668 706.327C369.961 707.137 370.845 706.948 372.418 705.524C374.884 703.293 375.017 701.654 372.906 699.542C370.996 697.633 370.369 697.598 368.073 699.277ZM413 699.945C411.327 701.794 411.319 702.08 412.868 704.445C414.676 707.204 416.417 707.631 418.277 705.771C420.685 703.363 419.063 697.971 415.932 697.971C415.302 697.971 413.983 698.859 413 699.945ZM459.048 699.542C458.184 700.407 457.477 701.725 457.477 702.471C457.477 703.764 460.069 706.971 461.114 706.971C462.863 706.971 465.477 704.596 465.477 703.007C465.477 701.07 463.016 697.971 461.477 697.971C461.006 697.971 459.913 698.678 459.048 699.542ZM596.562 699.886C594.255 702.193 594.701 704.485 597.778 706.132C599.494 707.05 600.155 706.852 601.687 704.96C603.286 702.985 603.35 702.412 602.168 700.632C600.239 697.726 598.9 697.548 596.562 699.886ZM642.048 699.542C641.184 700.407 640.477 701.725 640.477 702.471C640.477 703.764 643.069 706.971 644.114 706.971C646.087 706.971 648.477 704.506 648.477 702.471C648.477 701.092 647.64 699.594 646.543 699.006C644.041 697.667 643.908 697.683 642.048 699.542ZM688.227 699.051C683.864 701.592 688.019 708.357 692.477 705.971C695.056 704.591 695.096 700.373 692.543 699.006C690.241 697.774 690.423 697.772 688.227 699.051ZM734.227 699.051C730.977 700.944 732.965 706.971 736.84 706.971C737.885 706.971 740.477 703.764 740.477 702.471C740.477 701.05 737.825 697.949 736.656 698.001C736.282 698.018 735.189 698.49 734.227 699.051ZM780.073 699.277C778.975 700.08 778.42 701.525 778.632 703.027C778.91 704.999 779.556 705.471 781.977 705.471C784.348 705.471 785.045 704.988 785.304 703.166C785.614 700.975 784.019 697.971 782.546 697.971C782.168 697.971 781.056 698.559 780.073 699.277ZM871.059 699.287C867.496 701.893 871.49 707.712 875.227 705.359C877.612 703.857 877.905 701.541 875.956 699.592C873.992 697.629 873.38 697.591 871.059 699.287ZM917.227 699.051C913.977 700.944 915.965 706.971 919.84 706.971C920.885 706.971 923.477 703.764 923.477 702.471C923.477 701.05 920.825 697.949 919.656 698.001C919.282 698.018 918.189 698.49 917.227 699.051ZM962.523 699.416C960.927 701.339 961.555 705.002 963.713 706.355C965.086 707.216 965.903 706.989 967.621 705.272C969.695 703.198 969.717 702.986 968.111 700.536C966.224 697.656 964.303 697.271 962.523 699.416ZM504.677 700.171C502.976 701.872 503.185 703.397 505.394 705.396C506.923 706.78 507.732 706.905 509.394 706.016C512.871 704.155 511.46 698.971 507.477 698.971C506.597 698.971 505.337 699.511 504.677 700.171ZM550.144 699.638C548.572 701.209 549.551 705.063 551.727 705.872C555.626 707.321 558.201 704.827 556.932 700.83C556.349 698.993 551.619 698.162 550.144 699.638ZM824.559 700.372C822.933 702.331 824.041 705.698 826.576 706.502C829.317 707.372 831.64 705.175 831.278 702.057C831.052 700.118 830.33 699.396 828.391 699.17C826.969 699.005 825.245 699.546 824.559 700.372ZM23.4767 746.971C21.9807 749.766 23.8507 752.971 26.9767 752.971C28.3827 752.971 29.8577 752.129 30.4767 750.971C31.9727 748.176 30.1027 744.971 26.9767 744.971C25.5707 744.971 24.0957 745.813 23.4767 746.971ZM69.6767 746.171C66.9817 748.866 69.0827 752.971 73.1577 752.971C74.7597 752.971 75.6267 752.223 76.0697 750.458C77.1507 746.149 72.6907 743.157 69.6767 746.171ZM115.517 746.423C112.86 749.624 116.762 754.541 120.227 752.359C123.689 750.178 122.456 744.971 118.477 744.971C117.512 744.971 116.18 745.624 115.517 746.423ZM161.647 745.845C160.891 746.324 160.459 747.937 160.647 749.58C160.905 751.839 161.542 752.537 163.563 752.772C167.182 753.192 169.116 750.668 167.645 747.441C166.508 744.944 164.085 744.299 161.647 745.845ZM206.563 747.221C205.399 750.303 207.014 752.971 210.044 752.971C212.95 752.971 214.775 749.492 213.324 746.721C211.974 744.146 207.602 744.469 206.563 747.221ZM252.677 746.171C249.965 748.883 252.087 752.971 256.208 752.971C258.924 752.971 259.95 750.994 259.066 747.469C258.379 744.732 254.836 744.012 252.677 746.171ZM298.517 746.423C295.86 749.624 299.762 754.541 303.227 752.359C306.689 750.178 305.456 744.971 301.477 744.971C300.512 744.971 299.18 745.624 298.517 746.423ZM344.677 746.171C344.017 746.831 343.477 748.397 343.477 749.652C343.477 752.394 347.675 753.882 349.99 751.96C352.793 749.634 351.117 744.971 347.477 744.971C346.597 744.971 345.337 745.511 344.677 746.171ZM390.877 745.736C389.191 746.862 388.649 749.28 389.647 751.221C390.877 753.612 395.147 753.455 396.477 750.971C398.513 747.166 394.439 743.358 390.877 745.736ZM435.338 747.376C433.837 750.671 435.734 753.197 439.391 752.772C441.622 752.512 441.977 751.991 441.977 748.971C441.977 745.899 441.642 745.432 439.235 745.155C437.108 744.91 436.235 745.408 435.338 747.376ZM481.517 746.423C478.86 749.624 482.762 754.541 486.227 752.359C489.689 750.178 488.456 744.971 484.477 744.971C483.512 744.971 482.18 745.624 481.517 746.423ZM527.677 746.171C527.017 746.831 526.477 748.397 526.477 749.652C526.477 752.394 530.675 753.882 532.99 751.96C535.793 749.634 534.117 744.971 530.477 744.971C529.597 744.971 528.337 745.511 527.677 746.171ZM573.647 745.845C572.891 746.324 572.459 747.937 572.647 749.58C572.908 751.87 573.535 752.535 575.66 752.781C577.55 752.999 578.668 752.482 579.445 751.031C581.582 747.038 577.51 743.396 573.647 745.845ZM618.477 746.971C616.84 750.029 618.905 753.172 622.294 752.781C624.419 752.535 625.046 751.87 625.307 749.58C625.824 745.047 620.579 743.044 618.477 746.971ZM664.517 746.423C661.86 749.624 665.762 754.541 669.227 752.359C672.689 750.178 671.456 744.971 667.477 744.971C666.512 744.971 665.18 745.624 664.517 746.423ZM710.517 746.423C707.86 749.624 711.762 754.541 715.227 752.359C718.689 750.178 717.456 744.971 713.477 744.971C712.512 744.971 711.18 745.624 710.517 746.423ZM755.867 746.398C754.652 749.564 755.921 752.464 758.66 752.781C762.049 753.172 764.114 750.029 762.477 746.971C761.232 744.645 756.69 744.251 755.867 746.398ZM801.477 746.971C799.981 749.766 801.851 752.971 804.977 752.971C807.947 752.971 809.546 750.279 808.391 747.221C807.297 744.323 802.978 744.167 801.477 746.971ZM847.517 746.423C844.86 749.624 848.762 754.541 852.227 752.359C855.689 750.178 854.456 744.971 850.477 744.971C849.512 744.971 848.18 745.624 847.517 746.423ZM893.517 746.423C890.86 749.624 894.762 754.541 898.227 752.359C901.689 750.178 900.456 744.971 896.477 744.971C895.512 744.971 894.18 745.624 893.517 746.423ZM939.647 745.845C938.891 746.324 938.459 747.937 938.647 749.58C938.905 751.839 939.542 752.537 941.563 752.772C945.182 753.192 947.116 750.668 945.645 747.441C944.508 744.944 942.085 744.299 939.647 745.845ZM984.477 746.971C982.981 749.766 984.851 752.971 987.977 752.971C990.947 752.971 992.546 750.279 991.391 747.221C990.297 744.323 985.978 744.167 984.477 746.971ZM1.47668 792.971C-0.175324 794.623 -0.359324 795.408 0.518676 797.05C2.14368 800.086 4.39068 800.502 6.69868 798.193C9.00768 795.885 8.59168 793.638 5.55568 792.013C3.91368 791.135 3.12868 791.319 1.47668 792.971ZM46.9237 793.03C45.5327 794.566 45.3207 795.5 46.0857 796.713C47.8947 799.581 50.1517 800.486 51.8927 799.041C54.0787 797.226 53.8807 793.258 51.5427 792.006C49.0167 790.655 49.0867 790.639 46.9237 793.03ZM93.2267 792.051C88.8637 794.592 93.0187 801.357 97.4767 798.971C100.056 797.591 100.096 793.373 97.5427 792.006C95.2407 790.774 95.4227 790.772 93.2267 792.051ZM139.073 792.277C135.323 795.019 139.31 801.819 143.227 799.364C145.589 797.883 145.946 794.582 143.959 792.596C141.994 790.631 141.379 790.591 139.073 792.277ZM185.201 792.105C181.403 794.231 184.232 800.818 188.378 799.502C190.509 798.826 192.012 795.646 190.986 793.985C189.782 792.037 186.961 791.121 185.201 792.105ZM230.042 792.899C227.932 795.23 228.714 798.594 231.576 799.502C235.868 800.865 238.529 794.14 234.543 792.006C232.028 790.66 232.077 790.65 230.042 792.899ZM276.048 792.542C272.493 796.098 276.089 801.319 280.477 798.971C283.056 797.591 283.096 793.373 280.543 792.006C278.041 790.667 277.908 790.683 276.048 792.542ZM322.227 792.051C319.842 793.44 319.994 797.642 322.477 798.971C326.865 801.319 330.461 796.098 326.906 792.542C325.084 790.721 324.598 790.67 322.227 792.051ZM368.201 792.105C364.403 794.231 367.232 800.818 371.378 799.502C373.509 798.826 375.012 795.646 373.986 793.985C372.782 792.037 369.961 791.121 368.201 792.105ZM413.075 792.862C410.894 795.273 411.709 798.592 414.716 799.547C416.265 800.038 417.359 799.6 418.692 797.954C420.304 795.963 420.359 795.425 419.134 793.577C417.251 790.737 415.216 790.497 413.075 792.862ZM459.048 792.542C458.184 793.407 457.477 794.725 457.477 795.471C457.477 797.164 460.204 799.971 461.848 799.971C465.485 799.971 466.808 793.754 463.543 792.006C461.041 790.667 460.908 790.683 459.048 792.542ZM505.227 792.051C502.842 793.44 502.994 797.642 505.477 798.971C509.865 801.319 513.461 796.098 509.906 792.542C508.084 790.721 507.598 790.67 505.227 792.051ZM551.119 792.151C549.087 793.289 548.975 797.309 550.929 798.931C552.701 800.401 556.068 799.478 556.907 797.292C558.388 793.434 554.692 790.152 551.119 792.151ZM596.047 793.175C594.731 795.054 594.703 795.679 595.862 797.425C597.63 800.087 600.362 800.031 602.178 797.294C603.479 795.335 603.417 794.911 601.55 793.044C598.922 790.416 597.963 790.439 596.047 793.175ZM642.443 792.798C640.842 794.094 640.412 795.191 640.901 796.732C642.36 801.328 648.477 800.239 648.477 795.384C648.477 791.932 645.23 790.541 642.443 792.798ZM688.048 792.542C684.493 796.098 688.089 801.319 692.477 798.971C695.056 797.591 695.096 793.373 692.543 792.006C690.041 790.667 689.908 790.683 688.048 792.542ZM734.227 792.051C730.977 793.944 732.965 799.971 736.84 799.971C737.885 799.971 740.477 796.764 740.477 795.471C740.477 794.05 737.825 790.949 736.656 791.001C736.282 791.018 735.189 791.49 734.227 792.051ZM779.431 793.017C777.821 794.627 777.643 795.413 778.519 797.05C780.135 800.069 782.389 800.503 784.661 798.232C786.274 796.618 786.463 795.814 785.605 794.21C783.999 791.21 781.685 790.763 779.431 793.017ZM826.274 791.71C822.726 792.521 822.983 798.362 826.617 799.516C829.156 800.321 831.477 798.348 831.477 795.384C831.477 792.843 828.992 791.089 826.274 791.71ZM870.995 792.596C869.008 794.582 869.365 797.883 871.727 799.364C875.644 801.819 879.631 795.019 875.881 792.277C873.575 790.591 872.96 790.631 870.995 792.596ZM917.227 792.051C914.133 793.853 915.585 799.971 919.106 799.971C920.75 799.971 923.477 797.164 923.477 795.471C923.477 794.05 920.825 790.949 919.656 791.001C919.282 791.018 918.189 791.49 917.227 792.051ZM963.227 792.051C961.046 793.322 960.951 797.29 963.061 799.041C964.802 800.486 967.059 799.581 968.868 796.713C969.633 795.5 969.421 794.566 968.03 793.03C965.919 790.696 965.648 790.641 963.227 792.051ZM23.4767 839.971C21.9807 842.766 23.8507 845.971 26.9767 845.971C29.6017 845.971 31.5217 843.388 30.6917 840.971C29.5127 837.535 25.1077 836.924 23.4767 839.971ZM69.6767 839.171C66.8167 842.031 69.4487 846.396 73.6717 845.798C75.3737 845.557 76.0627 844.714 76.3067 842.58C76.7737 838.49 72.5367 836.311 69.6767 839.171ZM115.517 839.423C112.86 842.624 116.762 847.541 120.227 845.359C123.689 843.178 122.456 837.971 118.477 837.971C117.512 837.971 116.18 838.624 115.517 839.423ZM161.647 838.845C160.891 839.324 160.459 840.937 160.647 842.58C160.905 844.839 161.542 845.537 163.563 845.772C167.182 846.192 169.116 843.668 167.645 840.441C166.508 837.944 164.085 837.299 161.647 838.845ZM207.048 839.542C205.189 841.402 205.173 841.535 206.512 844.037C207.879 846.59 212.097 846.55 213.477 843.971C215.825 839.583 210.604 835.987 207.048 839.542ZM252.677 839.171C249.817 842.031 252.449 846.396 256.672 845.798C258.374 845.557 259.063 844.714 259.307 842.58C259.774 838.49 255.537 836.311 252.677 839.171ZM298.517 839.423C295.86 842.624 299.762 847.541 303.227 845.359C306.689 843.178 305.456 837.971 301.477 837.971C300.512 837.971 299.18 838.624 298.517 839.423ZM344.563 839.368C343.881 840.189 343.471 841.898 343.65 843.166C343.905 844.966 344.611 845.471 346.868 845.471C350.433 845.471 352.478 842.787 350.87 840.221C349.434 837.931 346.127 837.483 344.563 839.368ZM390.647 838.845C389.891 839.324 389.459 840.937 389.647 842.58C389.908 844.87 390.535 845.535 392.66 845.781C394.55 845.999 395.668 845.482 396.445 844.031C398.582 840.038 394.51 836.396 390.647 838.845ZM435.309 840.441C433.838 843.668 435.772 846.192 439.391 845.772C441.412 845.537 442.049 844.839 442.307 842.58C442.859 837.744 437.31 836.048 435.309 840.441ZM481.677 839.171C478.982 841.866 481.083 845.971 485.158 845.971C486.76 845.971 487.627 845.223 488.07 843.458C489.151 839.149 484.691 836.157 481.677 839.171ZM527.563 839.368C526.881 840.189 526.471 841.898 526.65 843.166C526.905 844.966 527.611 845.471 529.868 845.471C533.433 845.471 535.478 842.787 533.87 840.221C532.434 837.931 529.127 837.483 527.563 839.368ZM573.647 838.845C572.891 839.324 572.459 840.937 572.647 842.58C572.908 844.87 573.535 845.535 575.66 845.781C577.55 845.999 578.668 845.482 579.445 844.031C581.582 840.038 577.51 836.396 573.647 838.845ZM618.477 839.971C616.84 843.029 618.905 846.172 622.294 845.781C624.419 845.535 625.046 844.87 625.307 842.58C625.824 838.047 620.579 836.044 618.477 839.971ZM664.677 839.171C661.982 841.866 664.083 845.971 668.158 845.971C669.76 845.971 670.627 845.223 671.07 843.458C672.151 839.149 667.691 836.157 664.677 839.171ZM710.677 839.171C710.017 839.831 709.477 841.397 709.477 842.652C709.477 845.394 713.675 846.882 715.99 844.96C718.793 842.634 717.117 837.971 713.477 837.971C712.597 837.971 711.337 838.511 710.677 839.171ZM756.647 838.845C755.891 839.324 755.459 840.937 755.647 842.58C755.908 844.87 756.535 845.535 758.66 845.781C760.55 845.999 761.668 845.482 762.445 844.031C764.582 840.038 760.51 836.396 756.647 838.845ZM801.477 839.971C799.84 843.029 801.905 846.172 805.294 845.781C807.419 845.535 808.046 844.87 808.307 842.58C808.824 838.047 803.579 836.044 801.477 839.971ZM847.677 839.171C844.817 842.031 847.449 846.396 851.672 845.798C853.374 845.557 854.063 844.714 854.307 842.58C854.774 838.49 850.537 836.311 847.677 839.171ZM893.528 839.41C892.771 840.322 892.516 841.99 892.9 843.521C893.419 845.588 894.063 846.035 896.161 845.784C897.599 845.612 899.268 844.683 899.871 843.721C902.174 840.043 896.31 836.057 893.528 839.41ZM939.647 838.845C938.891 839.324 938.459 840.937 938.647 842.58C938.908 844.87 939.535 845.535 941.66 845.781C943.55 845.999 944.668 845.482 945.445 844.031C947.582 840.038 943.51 836.396 939.647 838.845ZM985.048 839.542C983.189 841.402 983.173 841.535 984.512 844.037C985.879 846.59 990.097 846.55 991.477 843.971C993.825 839.583 988.604 835.987 985.048 839.542ZM47.6317 885.575C46.4467 886.405 45.4767 887.708 45.4767 888.471C45.4767 889.234 46.4467 890.537 47.6317 891.367C50.4307 893.327 53.4767 891.818 53.4767 888.471C53.4767 885.124 50.4307 883.615 47.6317 885.575ZM139.167 885.125C137.06 886.304 136.967 890.303 139.007 891.996C141.016 893.663 145.483 891.757 145.462 889.242C145.431 885.639 142.118 883.473 139.167 885.125ZM277.274 884.71C275.011 885.228 273.998 888.689 275.559 890.57C276.245 891.396 277.969 891.937 279.391 891.772C281.358 891.543 282.051 890.829 282.287 888.788C282.622 885.885 280.322 884.013 277.274 884.71ZM597.201 885.105C594.808 886.445 594.904 891.654 597.336 892.426C600.424 893.406 602.477 891.998 602.477 888.899C602.477 885.543 599.826 883.637 597.201 885.105ZM872.228 884.719C869.983 885.23 868.875 889.541 870.488 891.484C873.041 894.56 877.477 892.543 877.477 888.306C877.477 885.818 874.959 884.097 872.228 884.719ZM1.18968 885.592C-0.0323244 886.814 0.408677 890.669 1.91268 891.918C4.25468 893.862 7.66968 891.47 7.28668 888.154C7.05268 886.128 6.35468 885.398 4.43968 885.175C3.04368 885.012 1.58068 885.2 1.18968 885.592ZM91.8637 887.566C91.1737 890.313 93.2307 892.971 96.0457 892.971C97.9597 892.971 99.6567 890.266 99.3037 887.776C99.0517 885.997 98.2427 885.4 95.7607 885.16C92.9837 884.892 92.4527 885.22 91.8637 887.566ZM184.144 885.638C182.955 886.826 183.438 890.694 184.929 891.931C188.198 894.645 193.151 889.692 190.437 886.423C189.2 884.932 185.332 884.449 184.144 885.638ZM229.559 886.372C226.783 889.717 231.731 894.665 235.076 891.889C235.902 891.203 236.443 889.479 236.278 888.057C236.052 886.118 235.33 885.396 233.391 885.17C231.969 885.005 230.245 885.546 229.559 886.372ZM321.452 886.501C319.894 888.378 321.62 892.971 323.884 892.971C325.653 892.971 328.477 890.283 328.477 888.6C328.477 885.26 323.673 883.825 321.452 886.501ZM367.144 885.638C365.955 886.826 366.438 890.694 367.929 891.931C369.845 893.521 373.212 892.38 374.008 889.872C374.357 888.774 374.1 887.222 373.437 886.423C372.2 884.932 368.332 884.449 367.144 885.638ZM412.516 886.899C410.134 891.348 415.477 894.924 418.65 891.005C420.015 889.32 420.202 888.326 419.427 886.878C418.096 884.39 413.851 884.403 412.516 886.899ZM458.04 886.773C457.207 889.397 458.273 891.771 460.617 892.516C463.321 893.374 465.638 891.157 465.278 888.057C465.034 885.964 464.374 885.412 461.812 885.164C459.41 884.931 458.502 885.318 458.04 886.773ZM504.144 885.638C502.929 886.852 503.452 890.706 505.007 891.996C506.176 892.966 507.118 893 509.007 892.139C511.488 891.009 511.996 889.487 510.87 886.553C510.267 884.981 505.455 884.327 504.144 885.638ZM550.144 885.638C548.955 886.826 549.438 890.694 550.929 891.931C552.845 893.521 556.212 892.38 557.008 889.872C557.357 888.774 557.1 887.222 556.437 886.423C555.2 884.932 551.332 884.449 550.144 885.638ZM641.657 886.613C639.446 890.564 644.094 894.782 647.218 891.658C649.539 889.337 648.096 884.971 645.008 884.971C643.67 884.971 642.163 885.71 641.657 886.613ZM687.144 885.638C685.863 886.919 686.491 890.879 688.119 891.791C691.686 893.787 695.191 890.796 693.932 886.83C693.349 884.993 688.619 884.162 687.144 885.638ZM733.677 886.171C730.49 889.358 734.44 894.132 738.477 891.971C740.733 890.764 740.936 889.697 739.442 886.905C738.275 884.725 735.479 884.369 733.677 886.171ZM778.527 886.878C777.752 888.326 777.939 889.32 779.304 891.005C782.477 894.924 787.82 891.348 785.438 886.899C784.103 884.403 779.858 884.39 778.527 886.878ZM824.04 886.773C823.207 889.397 824.273 891.771 826.617 892.516C829.321 893.374 831.638 891.157 831.278 888.057C831.034 885.964 830.374 885.412 827.812 885.164C825.41 884.931 824.502 885.318 824.04 886.773ZM916.144 885.638C914.955 886.826 915.438 890.694 916.929 891.931C919.994 894.475 924.219 890.885 922.932 886.83C922.349 884.993 917.619 884.162 916.144 885.638ZM962.19 885.592C960.962 886.819 961.412 890.672 962.929 891.931C963.735 892.6 965.318 892.839 966.486 892.468C968.142 891.943 968.525 891.125 968.284 888.636C968.037 886.092 967.479 885.413 965.44 885.175C964.044 885.012 962.581 885.2 962.19 885.592ZM23.6947 932.994C21.9557 935.778 23.7447 938.971 27.0437 938.971C30.3317 938.971 31.9277 935.233 29.7107 932.721C27.6607 930.398 25.2477 930.507 23.6947 932.994ZM69.6767 932.171C66.8167 935.031 69.4487 939.396 73.6717 938.798C77.8987 938.199 76.8667 930.971 72.5547 930.971C71.6317 930.971 70.3367 931.511 69.6767 932.171ZM115.677 932.171C115.017 932.831 114.477 934.397 114.477 935.652C114.477 938.394 118.675 939.882 120.99 937.96C123.793 935.634 122.117 930.971 118.477 930.971C117.597 930.971 116.337 931.511 115.677 932.171ZM161.523 932.416C159.492 934.863 160.637 938.431 163.563 938.772C167.182 939.192 169.116 936.668 167.645 933.441C166.395 930.698 163.369 930.191 161.523 932.416ZM206.477 932.971C205.712 934.4 205.721 935.559 206.509 937.031C207.986 939.791 212.458 939.297 213.576 936.25C215.18 931.878 208.671 928.872 206.477 932.971ZM252.495 933.437C251.404 935.475 251.404 936.178 252.491 937.487C254.464 939.865 258.901 939.005 259.304 936.166C260.008 931.2 254.808 929.116 252.495 933.437ZM298.677 932.171C295.982 934.866 298.083 938.971 302.158 938.971C305.309 938.971 306.57 934.244 303.933 932.315C301.662 930.655 300.233 930.615 298.677 932.171ZM344.523 932.416C342.612 934.718 343.633 938.422 346.282 938.798C350.632 939.414 353.015 935.366 350.048 932.4C348.221 930.572 346.048 930.578 344.523 932.416ZM390.091 932.5C387.903 934.688 389.478 938.385 392.768 938.781C396.158 939.189 398.109 935.956 396.259 932.994C394.757 930.589 392.206 930.384 390.091 932.5ZM435.309 933.441C433.838 936.668 435.772 939.192 439.391 938.772C441.216 938.559 442.073 937.793 442.304 936.166C443.009 931.193 437.339 928.985 435.309 933.441ZM481.677 932.171C478.982 934.866 481.083 938.971 485.158 938.971C486.76 938.971 487.627 938.223 488.07 936.458C489.151 932.149 484.691 929.157 481.677 932.171ZM527.563 932.368C526.881 933.189 526.471 934.898 526.65 936.166C526.905 937.966 527.611 938.471 529.868 938.471C533.433 938.471 535.478 935.787 533.87 933.221C532.434 930.931 529.127 930.483 527.563 932.368ZM573.647 931.845C572.891 932.324 572.459 933.937 572.647 935.58C572.908 937.87 573.535 938.535 575.66 938.781C577.55 938.999 578.668 938.482 579.445 937.031C581.582 933.038 577.51 929.396 573.647 931.845ZM619.048 932.542C617.139 934.452 617.104 935.079 618.783 937.375C620.647 939.925 624.882 939.139 625.304 936.166C625.931 931.743 622.079 929.512 619.048 932.542ZM664.677 932.171C661.982 934.866 664.083 938.971 668.158 938.971C669.76 938.971 670.627 938.223 671.07 936.458C672.151 932.149 667.691 929.157 664.677 932.171ZM710.523 932.416C708.612 934.718 709.633 938.422 712.282 938.798C716.705 939.425 718.936 935.573 715.906 932.542C713.947 930.584 712.08 930.54 710.523 932.416ZM756.647 931.845C755.891 932.324 755.459 933.937 755.647 935.58C755.905 937.839 756.542 938.537 758.563 938.772C762.182 939.192 764.116 936.668 762.645 933.441C761.508 930.944 759.085 930.299 756.647 931.845ZM802.102 932.489C800.137 934.454 800.097 935.069 801.783 937.375C802.586 938.473 804.031 939.028 805.533 938.816C807.594 938.525 807.977 937.922 807.977 934.971C807.977 932.164 807.556 931.411 805.852 931.168C804.683 931.001 802.995 931.596 802.102 932.489ZM847.309 933.441C845.911 936.51 847.589 938.971 851.08 938.971C852.765 938.971 853.619 938.253 854.07 936.458C855.338 931.406 849.436 928.773 847.309 933.441ZM893.677 932.171C890.982 934.866 893.083 938.971 897.158 938.971C898.76 938.971 899.627 938.223 900.07 936.458C901.151 932.149 896.691 929.157 893.677 932.171ZM939.647 931.845C938.891 932.324 938.459 933.937 938.647 935.58C938.911 937.892 939.529 938.534 941.734 938.788C943.858 939.032 944.693 938.573 945.366 936.788C946.984 932.501 943.442 929.439 939.647 931.845ZM985.052 932.888C982.737 935.446 984.471 938.971 988.044 938.971C991.332 938.971 992.928 935.233 990.711 932.721C988.72 930.465 987.205 930.509 985.052 932.888ZM1.14368 978.638C-0.00732398 979.788 0.414676 980.971 1.97668 980.971C2.90968 980.971 3.47668 981.915 3.47668 983.471C3.47668 984.846 3.92668 985.971 4.47668 985.971C5.02668 985.971 5.47668 985.161 5.47668 984.171C5.47668 983.181 5.97768 981.87 6.58968 981.258C7.20168 980.646 7.39968 979.656 7.03068 979.058C6.29368 977.866 2.20668 977.575 1.14368 978.638ZM46.5787 979.348C45.5517 980.586 45.8087 980.879 48.1647 981.149C50.3627 981.401 50.9587 981.969 50.8937 983.754C50.7737 987.068 52.5147 984.862 52.7667 981.381C52.9437 978.929 52.5697 978.424 50.3907 978.17C48.9687 978.005 47.2537 978.535 46.5787 979.348ZM92.5587 979.372C90.9657 981.291 91.4837 983.946 93.7267 985.359C96.2917 986.974 98.9767 984.93 98.9767 981.362C98.9767 978.997 98.5067 978.416 96.3907 978.17C94.9687 978.005 93.2447 978.546 92.5587 979.372ZM137.861 979.413C136.361 983.322 140.021 987.378 143.227 985.359C147.003 982.981 145.373 977.971 140.823 977.971C139.498 977.971 138.165 978.62 137.861 979.413ZM184.144 978.638C182.833 979.949 183.487 984.761 185.059 985.364C187.993 986.49 189.515 985.982 190.645 983.501C191.506 981.612 191.472 980.67 190.502 979.501C189.212 977.946 185.358 977.423 184.144 978.638ZM229.559 979.372C226.783 982.717 231.731 987.665 235.076 984.889C235.902 984.203 236.443 982.479 236.278 981.057C236.052 979.118 235.33 978.396 233.391 978.17C231.969 978.005 230.245 978.546 229.559 979.372ZM275.559 979.372C273.966 981.291 274.484 983.946 276.727 985.359C279.292 986.974 281.977 984.93 281.977 981.362C281.977 978.997 281.507 978.416 279.391 978.17C277.969 978.005 276.245 978.546 275.559 979.372ZM321.144 978.638C320.057 979.724 320.383 983.477 321.677 984.771C324.691 987.785 329.151 984.793 328.07 980.484C327.583 978.545 326.796 977.971 324.625 977.971C323.077 977.971 321.51 978.271 321.144 978.638ZM367.144 978.638C365.955 979.826 366.438 983.694 367.929 984.931C369.845 986.521 373.212 985.38 374.008 982.872C374.357 981.774 374.1 980.222 373.437 979.423C372.2 977.932 368.332 977.449 367.144 978.638ZM412.516 979.899C410.257 984.12 415.184 987.767 418.498 984.326C419.819 982.954 420.057 981.885 419.413 980.221C418.308 977.367 413.979 977.165 412.516 979.899ZM458.559 979.372C455.783 982.717 460.731 987.665 464.076 984.889C464.902 984.203 465.443 982.479 465.278 981.057C465.052 979.118 464.33 978.396 462.391 978.17C460.969 978.005 459.245 978.546 458.559 979.372ZM504.144 978.638C503.057 979.724 503.383 983.477 504.677 984.771C507.691 987.785 512.151 984.793 511.07 980.484C510.583 978.545 509.796 977.971 507.625 977.971C506.077 977.971 504.51 978.271 504.144 978.638ZM550.144 978.638C548.955 979.826 549.438 983.694 550.929 984.931C552.845 986.521 556.212 985.38 557.008 982.872C557.357 981.774 557.1 980.222 556.437 979.423C555.2 977.932 551.332 977.449 550.144 978.638ZM595.657 979.613C593.669 983.166 596.936 986.883 600.759 985.416C604.633 983.93 603.218 977.971 598.992 977.971C597.663 977.971 596.163 978.71 595.657 979.613ZM641.494 979.45C640.484 980.668 640.441 981.597 641.309 983.501C643.339 987.957 649.009 985.749 648.304 980.776C647.902 977.94 643.464 977.076 641.494 979.45ZM686.884 980.484C686.161 983.365 687.867 985.971 690.477 985.971C693.087 985.971 694.793 983.365 694.07 980.484C693.574 978.508 692.806 977.971 690.477 977.971C688.148 977.971 687.38 978.508 686.884 980.484ZM733.144 978.638C732.057 979.724 732.383 983.477 733.677 984.771C736.91 988.004 742.421 983.018 739.502 979.501C738.212 977.946 734.358 977.423 733.144 978.638ZM778.527 979.878C777.752 981.326 777.939 982.32 779.304 984.005C782.477 987.924 787.82 984.348 785.438 979.899C784.103 977.403 779.858 977.39 778.527 979.878ZM824.494 979.45C823.484 980.668 823.441 981.597 824.309 983.501C826.339 987.957 832.009 985.749 831.304 980.776C830.902 977.94 826.464 977.076 824.494 979.45ZM869.884 980.484C869.161 983.365 870.867 985.971 873.477 985.971C876.087 985.971 877.793 983.365 877.07 980.484C876.574 978.508 875.806 977.971 873.477 977.971C871.148 977.971 870.38 978.508 869.884 980.484ZM916.144 978.638C914.955 979.826 915.438 983.694 916.929 984.931C919.994 987.475 924.219 983.885 922.932 979.83C922.349 977.993 917.619 977.162 916.144 978.638ZM962.144 978.638C960.955 979.826 961.438 983.694 962.929 984.931C964.677 986.382 968.065 985.488 968.881 983.36C970.22 979.872 964.746 976.035 962.144 978.638ZM46.9357 983.038C46.0157 984.527 47.0827 985.336 48.9967 984.602C49.8807 984.263 50.3237 983.532 49.9807 982.978C49.1707 981.667 47.7657 981.694 46.9357 983.038Z" fill="black"/>
</svg>
