<svg width="2484" height="337" viewBox="0 0 2484 337" fill="none" xmlns="http://www.w3.org/2000/svg">
<path fill-rule="evenodd" clip-rule="evenodd" d="M0 14.908V29.761L8.38 30.405C25.148 31.694 42.787 37.248 79.5 52.797C132.298 75.16 148.398 79.556 177.5 79.556C206.554 79.556 219.444 76.061 273.687 53.477C317.094 35.404 330.229 31.404 349.578 30.369C373.576 29.084 388.909 33.478 449.133 58.894C483.703 73.483 503.8 78.859 527.133 79.757C556.814 80.9 575.398 75.983 632.057 52C655.939 41.891 670.292 36.712 684 33.257C693.09 30.967 696.581 30.609 710 30.597C723.833 30.584 726.683 30.89 736.5 33.435C750.116 36.965 764.767 42.332 790 53.033C843.372 75.667 862.782 80.766 891.96 79.82C916.601 79.021 935.5 73.646 981 54.497C1024.72 36.099 1040.2 31.37 1060.02 30.366C1082.49 29.229 1098.98 33.668 1145.75 53.436C1198.25 75.629 1218.43 80.859 1247.5 79.805C1272.02 78.915 1290.85 73.478 1337.36 53.853C1367.43 41.171 1388.46 33.94 1401.93 31.655C1427.4 27.333 1449.01 31.721 1492.5 50.047C1534.56 67.771 1550.52 73.465 1570 77.688C1582.05 80.3 1611.95 80.3 1624 77.688C1643.29 73.506 1659.71 67.649 1701.5 50.044C1745.01 31.717 1766.6 27.333 1792.07 31.655C1805.5 33.933 1826.52 41.162 1856.56 53.832C1887.3 66.8 1904.22 72.84 1920.56 76.669C1931.41 79.214 1934.23 79.471 1951.5 79.485C1967.62 79.498 1972.09 79.153 1981 77.208C1996.41 73.844 2014.13 67.636 2045.02 54.777C2097.92 32.753 2111.21 29.126 2134.42 30.369C2153.07 31.366 2170.42 36.541 2206.86 51.964C2258.49 73.819 2275.49 78.811 2301.5 79.759C2331.05 80.837 2350.17 75.853 2404 53.038C2440.26 37.671 2458.72 31.794 2474.97 30.438L2483 29.768V14.884V0L2476.25 0.617C2449.73 3.04 2432.98 8.308 2377 31.825C2314.44 58.107 2297.23 57.569 2225 27.076C2165.56 1.983 2140.72 -3.115 2105.92 2.64C2087.53 5.68 2069.92 11.724 2027.58 29.522C1987.79 46.249 1972.61 50.459 1952 50.485C1930.55 50.512 1915.61 46.225 1869.5 26.818C1816.79 4.633 1791.23 -1.63 1764 0.967C1738.33 3.414 1727.39 6.943 1663 33.538C1631.64 46.49 1615.59 50.583 1596.5 50.501C1576.58 50.416 1558.4 45.37 1521.23 29.616C1510.08 24.891 1496.57 19.275 1491.2 17.136C1457.68 3.78 1431.76 -1.257 1408.5 1.062C1385.2 3.386 1366.47 9.146 1324 27.042C1279.51 45.788 1263.13 50.47 1242 50.47C1220.95 50.47 1206.9 46.48 1161.86 27.725C1128.76 13.936 1118.35 10.02 1105.97 6.693C1062.11 -5.097 1036.01 -1.214 969 27.076C924.401 45.905 908.184 50.53 887 50.464C867.26 50.402 850.557 45.978 817.456 32.046C760.783 8.192 745.799 3.41 720.101 0.971C693.23 -1.579 666.81 4.798 617 25.853C576.944 42.785 563.905 47.133 545.146 49.812C535.528 51.186 532.166 51.252 523.146 50.245C503.98 48.105 489.205 43.378 450.212 26.913C405.825 8.171 387.81 2.813 361.5 0.528C346.533 -0.772 321.729 3.468 299.409 11.141C293.308 13.238 275.758 20.202 260.409 26.616C214.349 45.863 198.291 50.486 177.5 50.486C156.709 50.486 140.651 45.863 94.591 26.616C62.669 13.277 49.079 8.409 33.5 4.732C24.815 2.683 6.499 0.0559998 0.894 0.0559998C0.402 0.0559998 0 6.74 0 14.908ZM0 79.267V93.78L7.75 94.462C26.459 96.107 43.062 101.48 87.142 120.155C129.999 138.312 151.927 144.179 176.937 144.18C203.076 144.181 224.531 138.512 267.858 120.155C302.721 105.385 314.573 101.051 331.5 96.882C338.705 95.108 343.392 94.667 355 94.67C377.152 94.677 390.452 98.456 436.516 117.832C486.342 138.79 505.799 144.161 531.871 144.158C559.178 144.153 576.369 139.491 626.739 118.424C655.614 106.348 678.513 98.27 690.5 95.931C700.537 93.972 720.63 94.19 731 96.37C744.019 99.107 762.887 105.819 791.984 118.064C841.725 138.997 860.421 144.126 887 144.126C914.397 144.126 932.41 139.152 984.855 117.107C1058.18 86.287 1072.01 86.39 1147.5 118.32C1195.86 138.778 1215.28 144.1 1241.7 144.144C1270.04 144.192 1287.69 139.103 1349.45 113.076C1383.13 98.884 1399.37 94.601 1419.5 94.601C1440.53 94.601 1455.43 98.712 1495.58 115.59C1551.19 138.967 1569.53 144.126 1597 144.126C1624.44 144.126 1641.35 139.411 1696 116.52C1738.8 98.594 1753.2 94.57 1774.5 94.589C1794.65 94.608 1810.9 98.898 1844.55 113.076C1906.08 139.006 1923.9 144.159 1952 144.159C1978.84 144.159 1998.05 138.81 2050 116.857C2092.21 99.02 2108.22 94.539 2129.5 94.607C2150.99 94.675 2165.73 98.839 2209.15 117.1C2261.21 139 2279.57 144.099 2306.53 144.144C2333.25 144.189 2352.3 138.988 2402.02 118.064C2440.63 101.813 2457.86 96.336 2476.25 94.466L2483 93.78V79.418V65.056H2477.44C2458.11 65.056 2433.9 72.194 2388.5 91.272C2347.7 108.42 2331.1 113.562 2312.8 114.732C2289.87 116.197 2272.82 111.485 2219 88.81C2176.71 70.993 2159.55 66.208 2134.85 65.345C2105.73 64.328 2085.48 69.325 2039.14 88.957C1986.98 111.057 1969.25 116.017 1947.07 114.717C1927.3 113.558 1912.67 109.139 1871.85 91.996C1819.54 70.023 1801.6 65.056 1774.55 65.056C1746.97 65.056 1727.59 70.536 1672.11 94.027C1627.4 112.957 1604.9 117.741 1580.38 113.531C1563.38 110.613 1549.87 105.907 1507.74 88.224C1466.61 70.965 1449.35 66.201 1424.85 65.345C1394.6 64.288 1377.56 68.712 1322.15 92.005C1281.93 108.908 1266.49 113.57 1246.93 114.717C1224.67 116.022 1207.14 111.098 1154.11 88.654C1113.14 71.308 1093.85 66.026 1068.8 65.284C1038.25 64.38 1022.02 68.868 957.549 96.036C922.998 110.596 907.656 114.583 886.5 114.503C864.881 114.421 851.123 110.477 805.484 91.28C755.215 70.136 736.562 65.056 709.189 65.056C682.344 65.056 663.855 70.287 608.584 93.522C567.464 110.808 553.523 114.599 531.5 114.481C509.669 114.365 496.123 110.453 449.5 90.802C403.589 71.451 385.305 66.253 360 65.356C330.207 64.301 311.979 69.032 258.012 91.826C230.939 103.262 216.993 108.334 203 111.837C193.994 114.091 190.365 114.465 177.5 114.465C164.635 114.465 161.006 114.091 152 111.837C138.354 108.421 124.018 103.255 100.142 93.148C51.781 72.677 32.629 66.762 10.25 65.385L0 64.755V79.267ZM0 143.254V157.747L10.208 158.984C29.313 161.299 41.852 165.341 81 181.803C111.591 194.666 125.171 199.63 140.5 203.549C168.444 210.693 189.781 210.405 218.824 202.493C231.442 199.056 241.866 195.13 274.864 181.387C333.576 156.936 350.882 153.995 384.5 162.755C397.313 166.094 408.801 170.372 438.513 182.87C468.705 195.57 479.201 199.378 495.5 203.547C524.376 210.933 546.52 210.393 576.786 201.565C589.909 197.737 603.905 192.364 634 179.599C671.92 163.515 689.579 158.66 710 158.705C730.603 158.751 747.17 163.449 789.5 181.252C822.196 195.002 836.999 200.373 852.358 204.06C892.542 213.706 918.16 209.394 983 182.07C1027.63 163.263 1043.88 158.635 1065 158.723C1085.99 158.81 1101.41 163.263 1147.5 182.552C1189.81 200.256 1206.97 205.567 1230 208.076C1257.63 211.086 1284.44 204.629 1337.98 182.063C1383.56 162.855 1397.88 158.761 1419.5 158.76C1442.15 158.758 1455.62 162.728 1507.23 184.624C1548.72 202.226 1572.05 208.407 1597 208.407C1621.95 208.407 1645.28 202.226 1686.77 184.624C1738.38 162.728 1751.85 158.758 1774.5 158.76C1796.11 158.761 1810.3 162.831 1856.5 182.276C1939.04 217.018 1963.9 217.324 2041.5 184.552C2083.55 166.796 2101.13 161.03 2119.57 158.956C2143.09 156.309 2161.86 161.289 2219 185.336C2276.02 209.334 2302.7 213.408 2341.64 204.06C2356.98 200.38 2371.75 195.021 2404.5 181.264C2441.07 165.9 2455.27 161.332 2473.75 158.974L2483 157.794V143.275V128.757L2474.02 129.394C2451.84 130.968 2431.06 137.351 2386.5 156.28C2346.37 173.327 2330.95 177.918 2311 178.759C2288.46 179.71 2271.24 175.024 2224 155.082C2194.42 142.596 2173.68 135.312 2158 131.91C2144.07 128.886 2116 128.591 2103.27 131.334C2083.71 135.552 2067.44 141.181 2033.82 155.368C1990.77 173.531 1976.51 177.839 1956.37 178.774C1934.27 179.799 1915.89 174.809 1869 155.049C1838.49 142.193 1822.01 136.331 1805.32 132.409C1794.58 129.884 1791.77 129.631 1774.5 129.631C1757.23 129.631 1754.42 129.884 1743.68 132.409C1728.82 135.903 1711.04 141.986 1690.5 150.607C1645.06 169.678 1634.46 173.498 1617.22 177.011C1590.76 182.404 1568.06 177.864 1520.23 157.609C1481.98 141.408 1467.36 136.203 1448 131.894C1439.13 129.919 1434.7 129.556 1419.5 129.556C1404.3 129.556 1399.87 129.919 1391 131.894C1371.64 136.203 1357.02 141.408 1318.77 157.609C1261.54 181.847 1239.58 184.341 1200 171.102C1193.68 168.986 1176.12 162.094 1161 155.786C1122.66 139.794 1111.3 135.841 1091 131.431C1078.05 128.618 1050.14 128.849 1036 131.886C1020.59 135.196 999.902 142.47 970 155.088C923.478 174.72 904.678 179.812 882.627 178.755C862.122 177.771 848.635 173.642 802.145 154.116C755.344 134.458 735.408 129.076 709.349 129.062C683.012 129.048 662.666 134.93 605.5 159.084C571.744 173.346 550.874 179.056 532.5 179.056C510.495 179.056 495.549 174.492 437.5 150.043C403.447 135.7 382.647 130.174 359.5 129.319C331.038 128.269 309.982 133.878 255.5 157.029C232.155 166.948 217.473 172.318 204.5 175.682C194.631 178.241 191.856 178.534 177.5 178.534C153.695 178.534 145.436 176.169 93.021 154.339C50.341 136.564 30.426 130.618 9.25 129.326L0 128.762V143.254ZM0 207.361V221.965L3.25 222.424C5.038 222.676 10.469 223.388 15.32 224.008C30.843 225.989 46.438 231.326 87.231 248.616C111.232 258.789 135.449 267.115 150 270.196C158.496 271.995 163.745 272.42 177.5 272.42C191.255 272.42 196.504 271.995 205 270.196C219.551 267.115 243.768 258.789 267.769 248.616C318.118 227.275 333.582 222.723 355.5 222.79C375.347 222.85 392.962 227.926 435.622 245.876C487.64 267.764 504.66 272.461 532 272.474C558.189 272.486 578.768 267.049 622.5 248.562C675.922 225.979 695.92 220.721 719.217 223.131C737.182 224.99 752.562 229.862 788.803 245.177C842.547 267.888 867.051 274.332 893.513 272.716C918.462 271.192 936.79 265.723 985.5 245.268C1057.93 214.851 1072.19 214.945 1146.5 246.327C1175.7 258.657 1189.64 263.766 1204.38 267.538C1245.7 278.111 1271.85 274.074 1335.5 247.297C1383.76 226.996 1398.5 222.756 1420.5 222.857C1439.92 222.947 1456.75 227.665 1494.78 243.678C1528.35 257.814 1544.93 263.931 1559.91 267.71C1600.43 277.929 1628.1 273.695 1688.5 248.029C1740.07 226.117 1760.41 220.771 1783.22 223.131C1802.03 225.078 1817.69 230.089 1858 247.072C1922.12 274.085 1948.19 278.138 1989.62 267.538C2004.64 263.696 2018.16 258.71 2050 245.282C2077.24 233.793 2087.91 229.874 2100.94 226.57C2132.83 218.487 2153.95 222.118 2207.86 244.957C2246.29 261.237 2261.42 266.522 2279.78 270.064C2314.9 276.841 2340.59 272.214 2395 249.318C2438.07 231.193 2457.11 224.814 2472.1 223.493C2484.14 222.43 2483 224.118 2483 207.399V192.781L2474.25 193.475C2452.77 195.178 2430.84 201.835 2390 219.044C2359.06 232.082 2341.6 238.274 2327.58 241.171C2319.09 242.927 2315.22 243.172 2303 242.73C2281.04 241.935 2269.79 238.553 2221.15 218.111C2172.56 197.694 2150.08 192.041 2123 193.425C2099.01 194.65 2080.93 199.938 2034.29 219.375C1987.37 238.928 1973.02 243.056 1952 243.056C1931.48 243.056 1913.91 238.16 1874.21 221.393C1818.98 198.058 1795.89 191.928 1768.61 193.353C1743.63 194.659 1723.52 200.633 1675.5 221.023C1635.73 237.907 1621.36 242.075 1600.5 242.775C1588.79 243.168 1584.79 242.893 1576.06 241.092C1562.09 238.213 1546.02 232.676 1521.68 222.359C1469.98 200.447 1450.85 194.684 1425.39 193.353C1411.63 192.634 1398.67 194.17 1381.5 198.557C1365.86 202.552 1356.5 205.998 1322.59 220.24C1276.4 239.64 1261.78 243.557 1238.5 242.775C1217.09 242.056 1202.85 237.77 1156.5 218.089C1110.1 198.39 1093.02 193.806 1065.5 193.668C1037.22 193.525 1020.36 198.017 971 218.839C924.672 238.383 912.727 241.951 891 242.733C878.789 243.172 874.908 242.926 866.418 241.171C852.395 238.272 834.923 232.081 804 219.054C774.489 206.621 753.733 199.361 738 195.967C722.917 192.714 697.041 192.68 682 195.895C667.38 199.02 643.145 207.36 619.231 217.496C568.83 238.859 554.756 243.011 532.657 243.04C511.566 243.068 494.226 238.167 451.808 220.19C399.509 198.024 376.134 191.949 348.5 193.338C326.259 194.456 303.994 200.876 264.5 217.558C236.406 229.424 218.385 236.157 205.366 239.649C192.087 243.21 171.658 244.06 158.5 241.598C146.009 239.261 124.176 231.775 100.231 221.62C51.639 201.013 32.391 195.056 9.06 193.4L0 192.757V207.361ZM0 272.056V287.056H5.39C21.186 287.056 41.212 293.319 86 312.267C112.786 323.599 133.781 330.905 149 334.19C157.721 336.072 162.55 336.456 177.5 336.456C192.45 336.456 197.279 336.072 206 334.19C221.219 330.905 242.214 323.599 269 312.267C317.498 291.75 333.412 287.056 354.479 287.056C375.339 287.056 393.568 292.293 438 311.049C481.939 329.597 503.044 335.727 526.62 336.789C554.427 338.043 576.44 332.335 628.252 310.438C671.145 292.31 685.22 288.1 705.5 287.33C714.944 286.972 721.065 287.284 727.879 288.469C740.394 290.646 762.054 298.01 786.769 308.492C825.19 324.785 840.238 330.135 859.042 334.187C873.07 337.209 900.115 337.474 913 334.715C933.856 330.248 947.537 325.453 987.5 308.601C1014.34 297.282 1029.57 292.008 1044.06 289.013C1052.9 287.185 1056.64 286.937 1068.5 287.385C1089.86 288.194 1100.16 291.261 1146.74 310.677C1193.12 330.012 1212.41 335.608 1236.56 336.732C1263.66 337.993 1285.45 332.472 1334.15 312.005C1365.83 298.685 1379.23 293.723 1392.89 290.256C1402.37 287.847 1405.25 287.568 1420 287.623C1435.13 287.681 1437.45 287.94 1448 290.75C1462.14 294.518 1472.8 298.492 1503 311.262C1530.01 322.684 1553.9 330.992 1569 334.212C1584.05 337.421 1609.95 337.421 1625 334.212C1639.6 331.097 1663.84 322.76 1687.77 312.616C1737.58 291.503 1752.71 287.056 1774.7 287.056C1794.44 287.056 1812.56 292.148 1851.79 308.719C1883.95 322.306 1898.59 327.726 1913.54 331.57C1931.62 336.224 1941.98 337.439 1957.5 336.723C1983.02 335.547 2000.77 330.285 2051.14 308.964C2090.18 292.439 2104.91 288.165 2125.5 287.385C2137.36 286.937 2141.1 287.185 2149.94 289.013C2164.16 291.953 2179.68 297.283 2204 307.585C2256.61 329.87 2275.58 335.601 2300.62 336.77C2328.75 338.083 2351.22 332.234 2403.81 309.904C2440.41 294.362 2464.34 287.056 2478.63 287.056H2483V272.056V257.056L2480.25 257.076C2474.77 257.114 2456.27 259.944 2448.47 261.937C2434.95 265.388 2415.57 272.436 2390.69 282.947C2328.99 309.02 2310.81 312.21 2276.28 303.029C2263.54 299.642 2251.37 295.063 2222 282.615C2143.02 249.138 2116.06 248.988 2039.03 281.594C2000.72 297.811 1987.43 302.544 1971.46 305.662C1960.07 307.887 1942.29 307.862 1931.5 305.605C1918.69 302.926 1896.3 295.033 1870.81 284.208C1820.5 262.849 1801.88 257.716 1774.5 257.659C1748.29 257.605 1728.82 262.902 1679.71 283.448C1632.56 303.175 1618.24 307.307 1597 307.307C1576.58 307.307 1558.66 302.293 1518.89 285.458C1464.66 262.507 1447.13 257.602 1419.5 257.659C1391.91 257.716 1374.66 262.502 1321.5 284.86C1280.19 302.236 1262.25 307.347 1242.5 307.381C1220.48 307.419 1205.41 302.97 1154.77 281.488C1078.31 249.053 1050.72 249.224 972 282.625C920.759 304.367 899.93 309.766 877.669 307.076C857.026 304.583 844.225 300.376 799.685 281.447C723.722 249.164 696.083 249.259 618.5 282.069C565.603 304.439 545.882 309.574 522.674 307.02C503.846 304.948 488.006 299.734 443 280.794C406.906 265.604 388.915 260.192 367.012 257.935C338.323 254.978 313.582 260.929 259.5 283.796C210.302 304.597 190.703 309.554 167.674 307.02C149.253 304.993 135.183 300.512 98 284.83C66.169 271.405 52.637 266.417 37.618 262.572C25.998 259.597 9.836 257.056 2.539 257.056H0V272.056Z" fill="black"/>
</svg>
